<?xml version="1.0" encoding="UTF-8"?> <svg xmlns="http://www.w3.org/2000/svg" width="272" height="270" viewBox="0 0 272 270" fill="none"><mask id="mask0_2023:36835" style="mask-type:alpha" maskUnits="userSpaceOnUse" x="2" y="19" width="251" height="251"><rect x="2" y="19" width="251" height="251" fill="#C4C4C4"></rect></mask><g mask="url(#mask0_2023:36835)"><mask id="mask1_2023:36835" style="mask-type:alpha" maskUnits="userSpaceOnUse" x="-96" y="-139" width="500" height="494"><rect x="-96" y="-139" width="500" height="493.421" fill="white"></rect></mask><g mask="url(#mask1_2023:36835)"><rect x="-96" y="-139" width="501.645" height="493.421" fill="white"></rect><line x1="1.92085" y1="361.418" x2="1.92085" y2="-132.003" stroke="#E0E0E0" stroke-width="0.822368"></line><line x1="26.922" y1="361.418" x2="26.922" y2="-132.003" stroke="#E0E0E0" stroke-width="0.82"></line><line x1="51.9208" y1="361.418" x2="51.9208" y2="-132.003" stroke="#E0E0E0" stroke-width="0.822368"></line><line x1="76.9208" y1="361.418" x2="76.9208" y2="-132.003" stroke="#E0E0E0" stroke-width="0.822368"></line><line x1="101.921" y1="361.418" x2="101.921" y2="-132.003" stroke="#E0E0E0" stroke-width="0.822368"></line><line x1="126.922" y1="361.418" x2="126.922" y2="-132.003" stroke="#E0E0E0" stroke-width="0.82"></line><line x1="151.921" y1="361.418" x2="151.921" y2="-132.003" stroke="#E0E0E0" stroke-width="0.822368"></line><line x1="176.921" y1="361.418" x2="176.921" y2="-132.003" stroke="#E0E0E0" stroke-width="0.822368"></line><line x1="201.921" y1="361.418" x2="201.921" y2="-132.003" stroke="#E0E0E0" stroke-width="0.822368"></line><line x1="226.922" y1="361.418" x2="226.922" y2="-132.003" stroke="#E0E0E0" stroke-width="0.82"></line><line x1="251.921" y1="361.418" x2="251.921" y2="-132.003" stroke="#E0E0E0" stroke-width="0.822368"></line><line x1="407.289" y1="269.797" x2="-105.869" y2="269.797" stroke="#E0E0E0" stroke-width="0.82"></line><line x1="407.289" y1="244.798" x2="-105.869" y2="244.798" stroke="#E0E0E0" stroke-width="0.822368"></line><line x1="407.289" y1="219.798" x2="-105.869" y2="219.798" stroke="#E0E0E0" stroke-width="0.822368"></line><line x1="407.289" y1="194.798" x2="-105.869" y2="194.798" stroke="#E0E0E0" stroke-width="0.822368"></line><line x1="407.289" y1="169.797" x2="-105.869" y2="169.797" stroke="#E0E0E0" stroke-width="0.82"></line><line x1="407.289" y1="144.798" x2="-105.869" y2="144.798" stroke="#E0E0E0" stroke-width="0.822368"></line><line x1="407.289" y1="119.798" x2="-105.869" y2="119.798" stroke="#E0E0E0" stroke-width="0.822368"></line><line x1="407.289" y1="94.7979" x2="-105.869" y2="94.7979" stroke="#E0E0E0" stroke-width="0.822368"></line><line x1="407.289" y1="69.7967" x2="-105.869" y2="69.7967" stroke="#E0E0E0" stroke-width="0.82"></line><line x1="407.289" y1="44.7979" x2="-105.869" y2="44.7979" stroke="#E0E0E0" stroke-width="0.822368"></line><line x1="407.289" y1="19.7979" x2="-105.869" y2="19.7979" stroke="#E0E0E0" stroke-width="0.822368"></line></g><line x1="27" y1="-17" x2="27" y2="317" stroke="#9E9E9E" stroke-width="2"></line><line x1="-42" y1="245" x2="280" y2="245" stroke="#9E9E9E" stroke-width="2"></line><path d="M52 70L152 120V70H52Z" fill="#0D77F3" fill-opacity="0.3" stroke="#0D77F3" stroke-width="2" stroke-linejoin="round"></path><path d="M52 145L102 169V145H52Z" fill="#FF4081" fill-opacity="0.3" stroke="#FF4081" stroke-width="2" stroke-linejoin="round"></path><path d="M-4.5 274.5L52 220.356M259 12.5L52 220.356M17 273L52 220.356M199.5 -1.5L52 220.356M52 273V220.356M52 15.5V220.356" stroke="#FB1313" stroke-width="2" stroke-linecap="round" stroke-linejoin="round" stroke-dasharray="0.1 4"></path></g><path d="M22.6338 251.689C22.6338 252.35 22.541 252.967 22.3555 253.54C22.2448 253.892 22.0951 254.18 21.9062 254.404C21.7207 254.629 21.5091 254.808 21.2715 254.941C21.0339 255.072 20.7751 255.137 20.4951 255.137C20.1761 255.137 19.888 255.055 19.6309 254.893C19.3737 254.73 19.1458 254.497 18.9473 254.194C18.804 253.973 18.6787 253.678 18.5713 253.311C18.4313 252.812 18.3613 252.298 18.3613 251.768C18.3613 251.048 18.4622 250.387 18.6641 249.785C18.8301 249.287 19.0824 248.906 19.4209 248.643C19.7594 248.376 20.1175 248.242 20.4951 248.242C20.8792 248.242 21.2373 248.374 21.5693 248.638C21.9046 248.898 22.1504 249.25 22.3066 249.692C22.5247 250.301 22.6338 250.967 22.6338 251.689ZM21.1299 251.68C21.1299 250.521 21.1234 249.845 21.1104 249.653C21.0778 249.201 20.9997 248.895 20.876 248.735C20.7946 248.631 20.6628 248.579 20.4805 248.579C20.3405 248.579 20.2298 248.618 20.1484 248.696C20.028 248.81 19.9466 249.012 19.9043 249.302C19.862 249.588 19.8408 250.592 19.8408 252.314C19.8408 253.252 19.8734 253.88 19.9385 254.199C19.9873 254.43 20.0573 254.585 20.1484 254.663C20.2396 254.741 20.36 254.78 20.5098 254.78C20.6725 254.78 20.7946 254.728 20.876 254.624C21.0127 254.442 21.0908 254.16 21.1104 253.779L21.1299 251.68Z" fill="#757575"></path><path d="M21.2568 216.242V221.657C21.2568 222.064 21.2747 222.325 21.3105 222.438C21.3464 222.549 21.4212 222.64 21.5352 222.712C21.6491 222.784 21.8314 222.819 22.082 222.819H22.2334V223H18.7471V222.819H18.9229C19.2061 222.819 19.4079 222.787 19.5283 222.722C19.6488 222.657 19.7301 222.567 19.7725 222.453C19.8148 222.339 19.8359 222.074 19.8359 221.657V218.225C19.8359 217.919 19.8213 217.728 19.792 217.653C19.7627 217.575 19.7074 217.51 19.626 217.458C19.5479 217.403 19.4567 217.375 19.3525 217.375C19.1865 217.375 18.9847 217.427 18.7471 217.531L18.6592 217.355L21.0957 216.242H21.2568Z" fill="#757575"></path><path d="M22.1406 198H18.2441V197.893C19.4388 196.47 20.1631 195.513 20.417 195.021C20.6742 194.53 20.8027 194.05 20.8027 193.581C20.8027 193.239 20.6969 192.956 20.4854 192.731C20.2738 192.504 20.015 192.39 19.709 192.39C19.2077 192.39 18.8187 192.64 18.542 193.142L18.3613 193.078C18.5371 192.453 18.804 191.991 19.1621 191.691C19.5202 191.392 19.9336 191.242 20.4023 191.242C20.7376 191.242 21.0436 191.32 21.3203 191.477C21.597 191.633 21.8135 191.848 21.9697 192.121C22.126 192.391 22.2041 192.645 22.2041 192.883C22.2041 193.316 22.0837 193.755 21.8428 194.201C21.514 194.803 20.7962 195.643 19.6895 196.721H21.1201C21.4717 196.721 21.6995 196.706 21.8037 196.677C21.9111 196.647 21.999 196.599 22.0674 196.53C22.1357 196.459 22.2253 196.311 22.3359 196.086H22.5117L22.1406 198Z" fill="#757575"></path><path d="M19.4795 169.68V169.509C19.8506 169.401 20.1077 169.302 20.251 169.211C20.3942 169.117 20.5179 168.975 20.6221 168.786C20.7262 168.594 20.7783 168.4 20.7783 168.205C20.7783 167.935 20.679 167.704 20.4805 167.512C20.2852 167.316 20.041 167.219 19.748 167.219C19.2923 167.219 18.9049 167.46 18.5859 167.941L18.4053 167.878C18.6396 167.334 18.9391 166.926 19.3037 166.652C19.6715 166.379 20.0801 166.242 20.5293 166.242C20.9883 166.242 21.3659 166.382 21.6621 166.662C21.9616 166.942 22.1113 167.269 22.1113 167.644C22.1113 167.888 22.0413 168.124 21.9014 168.352C21.7646 168.576 21.5482 168.775 21.252 168.947C21.6328 169.133 21.9225 169.362 22.1211 169.636C22.3229 169.906 22.4238 170.246 22.4238 170.656C22.4238 171.346 22.1732 171.934 21.6719 172.419C21.1738 172.901 20.5049 173.142 19.665 173.142C19.1051 173.142 18.6966 173.049 18.4395 172.863C18.2539 172.733 18.1611 172.565 18.1611 172.36C18.1611 172.211 18.2148 172.084 18.3223 171.979C18.4297 171.872 18.5534 171.818 18.6934 171.818C18.8008 171.818 18.9017 171.841 18.9961 171.887C19.0482 171.913 19.2321 172.056 19.5479 172.316C19.8669 172.574 20.1647 172.702 20.4414 172.702C20.6823 172.702 20.889 172.608 21.0615 172.419C21.234 172.227 21.3203 171.984 21.3203 171.691C21.3203 171.245 21.1641 170.835 20.8516 170.461C20.5391 170.083 20.0817 169.823 19.4795 169.68Z" fill="#757575"></path><path d="M18.249 145.505L21.3936 141.242H21.9893V145.505H22.5947V146.516H21.9893V148H20.6465V146.516H18.249V145.505ZM18.7227 145.505H20.6465V142.893L18.7227 145.505Z" fill="#757575"></path><path d="M19.5234 116.379H22.624L22.1309 117.639H19.5234L19.2744 118.298C20.3975 118.34 21.2617 118.62 21.8672 119.138C22.3652 119.564 22.6143 120.095 22.6143 120.729C22.6143 121.136 22.4987 121.535 22.2676 121.926C22.0365 122.313 21.7109 122.613 21.291 122.824C20.8711 123.033 20.4105 123.137 19.9092 123.137C19.3688 123.137 18.9538 123.036 18.6641 122.834C18.4622 122.691 18.3613 122.528 18.3613 122.346C18.3613 122.206 18.4134 122.082 18.5176 121.975C18.625 121.867 18.7487 121.813 18.8887 121.813C19.0156 121.813 19.1442 121.84 19.2744 121.892C19.4046 121.944 19.6276 122.08 19.9434 122.302C20.1419 122.438 20.3128 122.533 20.4561 122.585C20.557 122.624 20.6709 122.644 20.7979 122.644C21.0648 122.644 21.291 122.546 21.4766 122.351C21.6654 122.155 21.7598 121.921 21.7598 121.647C21.7598 121.075 21.4733 120.609 20.9004 120.251C20.3275 119.893 19.6048 119.714 18.7324 119.714C18.6445 119.714 18.5127 119.715 18.3369 119.719L19.5234 116.379Z" fill="#757575"></path><path d="M22.6973 91.2422V91.3789C22.1081 91.5286 21.6344 91.7223 21.2764 91.96C20.9215 92.1943 20.64 92.4808 20.4316 92.8193C20.2266 93.1546 20.0671 93.5713 19.9531 94.0693C20.0964 93.9717 20.2152 93.9082 20.3096 93.8789C20.5212 93.8138 20.7344 93.7812 20.9492 93.7812C21.444 93.7812 21.8558 93.9619 22.1846 94.3232C22.5166 94.6813 22.6826 95.1712 22.6826 95.793C22.6826 96.2292 22.5931 96.6296 22.4141 96.9941C22.235 97.3587 21.9811 97.6403 21.6523 97.8389C21.3236 98.0374 20.972 98.1367 20.5977 98.1367C20.1908 98.1367 19.8148 98.026 19.4697 97.8047C19.1247 97.5801 18.8545 97.2529 18.6592 96.8232C18.4671 96.3936 18.3711 95.9264 18.3711 95.4219C18.3711 94.6797 18.5485 93.9896 18.9033 93.3516C19.2614 92.7103 19.7676 92.2008 20.4219 91.8232C21.0794 91.4424 21.8379 91.2487 22.6973 91.2422ZM19.8896 94.4648C19.8636 94.9141 19.8506 95.2428 19.8506 95.4512C19.8506 95.9004 19.8929 96.335 19.9775 96.7549C20.0654 97.1748 20.1842 97.4694 20.334 97.6387C20.4414 97.7591 20.5684 97.8193 20.7148 97.8193C20.8646 97.8193 20.998 97.7331 21.1152 97.5605C21.2324 97.3848 21.291 97.0299 21.291 96.4961C21.291 95.5977 21.182 94.9775 20.9639 94.6357C20.8239 94.4144 20.6351 94.3037 20.3975 94.3037C20.2673 94.3037 20.098 94.3574 19.8896 94.4648Z" fill="#757575"></path><path d="M19.7725 73.1367L21.5742 67.6729H20.2021C19.665 67.6729 19.2614 67.7428 18.9912 67.8828C18.8024 67.9805 18.6462 68.1644 18.5225 68.4346H18.3369L18.8154 66.3789H22.7607L20.5391 73.1367H19.7725Z" fill="#757575"></path><path d="M21.4082 44.2598C21.8737 44.6016 22.196 44.9206 22.375 45.2168C22.5573 45.5098 22.6484 45.8467 22.6484 46.2275C22.6484 46.7614 22.4466 47.2139 22.043 47.585C21.6426 47.9528 21.0973 48.1367 20.4072 48.1367C19.7529 48.1367 19.2467 47.9756 18.8887 47.6533C18.5306 47.3311 18.3516 46.9372 18.3516 46.4717C18.3516 46.1169 18.4541 45.806 18.6592 45.5391C18.8675 45.2721 19.2126 45.028 19.6943 44.8066C19.1702 44.4062 18.8333 44.0791 18.6836 43.8252C18.5371 43.5713 18.4639 43.2767 18.4639 42.9414C18.4639 42.4987 18.651 42.1097 19.0254 41.7744C19.403 41.4359 19.9189 41.2666 20.5732 41.2666C21.2048 41.2666 21.6898 41.4163 22.0283 41.7158C22.3701 42.012 22.541 42.3685 22.541 42.7852C22.541 43.0977 22.4482 43.3743 22.2627 43.6152C22.0804 43.8529 21.7956 44.0677 21.4082 44.2598ZM21.0371 44.0107C21.1576 43.848 21.2471 43.6657 21.3057 43.4639C21.3643 43.262 21.3936 43.0407 21.3936 42.7998C21.3936 42.3766 21.3024 42.0527 21.1201 41.8281C20.9834 41.6556 20.7946 41.5693 20.5537 41.5693C20.3356 41.5693 20.1501 41.6491 19.9971 41.8086C19.8441 41.9648 19.7676 42.1602 19.7676 42.3945C19.7676 42.6322 19.8522 42.8796 20.0215 43.1367C20.194 43.3906 20.5326 43.682 21.0371 44.0107ZM20.0605 45.041C19.9596 45.1322 19.888 45.2152 19.8457 45.29C19.7806 45.404 19.722 45.57 19.6699 45.7881C19.6178 46.0062 19.5918 46.234 19.5918 46.4717C19.5918 46.7777 19.6309 47.0348 19.709 47.2432C19.7871 47.4482 19.8978 47.5964 20.041 47.6875C20.1875 47.7786 20.3372 47.8242 20.4902 47.8242C20.7279 47.8242 20.9281 47.738 21.0908 47.5654C21.2536 47.3896 21.335 47.1504 21.335 46.8477C21.335 46.2161 20.9102 45.6139 20.0605 45.041Z" fill="#757575"></path><path d="M53.2568 248.242V253.657C53.2568 254.064 53.2747 254.325 53.3105 254.438C53.3464 254.549 53.4212 254.64 53.5352 254.712C53.6491 254.784 53.8314 254.819 54.082 254.819H54.2334V255H50.7471V254.819H50.9229C51.2061 254.819 51.4079 254.787 51.5283 254.722C51.6488 254.657 51.7301 254.567 51.7725 254.453C51.8148 254.339 51.8359 254.074 51.8359 253.657V250.225C51.8359 249.919 51.8213 249.728 51.792 249.653C51.7627 249.575 51.7074 249.51 51.626 249.458C51.5479 249.403 51.4567 249.375 51.3525 249.375C51.1865 249.375 50.9847 249.427 50.7471 249.531L50.6592 249.355L53.0957 248.242H53.2568Z" fill="#757575"></path><path d="M78.1406 255H74.2441V254.893C75.4388 253.47 76.1631 252.513 76.417 252.021C76.6742 251.53 76.8027 251.05 76.8027 250.581C76.8027 250.239 76.6969 249.956 76.4854 249.731C76.2738 249.504 76.015 249.39 75.709 249.39C75.2077 249.39 74.8187 249.64 74.542 250.142L74.3613 250.078C74.5371 249.453 74.804 248.991 75.1621 248.691C75.5202 248.392 75.9336 248.242 76.4023 248.242C76.7376 248.242 77.0436 248.32 77.3203 248.477C77.597 248.633 77.8135 248.848 77.9697 249.121C78.126 249.391 78.2041 249.645 78.2041 249.883C78.2041 250.316 78.0837 250.755 77.8428 251.201C77.514 251.803 76.7962 252.643 75.6895 253.721H77.1201C77.4717 253.721 77.6995 253.706 77.8037 253.677C77.9111 253.647 77.999 253.599 78.0674 253.53C78.1357 253.459 78.2253 253.311 78.3359 253.086H78.5117L78.1406 255Z" fill="#757575"></path><path d="M100.479 251.68V251.509C100.851 251.401 101.108 251.302 101.251 251.211C101.394 251.117 101.518 250.975 101.622 250.786C101.726 250.594 101.778 250.4 101.778 250.205C101.778 249.935 101.679 249.704 101.48 249.512C101.285 249.316 101.041 249.219 100.748 249.219C100.292 249.219 99.9049 249.46 99.5859 249.941L99.4053 249.878C99.6396 249.334 99.9391 248.926 100.304 248.652C100.672 248.379 101.08 248.242 101.529 248.242C101.988 248.242 102.366 248.382 102.662 248.662C102.962 248.942 103.111 249.269 103.111 249.644C103.111 249.888 103.041 250.124 102.901 250.352C102.765 250.576 102.548 250.775 102.252 250.947C102.633 251.133 102.923 251.362 103.121 251.636C103.323 251.906 103.424 252.246 103.424 252.656C103.424 253.346 103.173 253.934 102.672 254.419C102.174 254.901 101.505 255.142 100.665 255.142C100.105 255.142 99.6966 255.049 99.4395 254.863C99.2539 254.733 99.1611 254.565 99.1611 254.36C99.1611 254.211 99.2148 254.084 99.3223 253.979C99.4297 253.872 99.5534 253.818 99.6934 253.818C99.8008 253.818 99.9017 253.841 99.9961 253.887C100.048 253.913 100.232 254.056 100.548 254.316C100.867 254.574 101.165 254.702 101.441 254.702C101.682 254.702 101.889 254.608 102.062 254.419C102.234 254.227 102.32 253.984 102.32 253.691C102.32 253.245 102.164 252.835 101.852 252.461C101.539 252.083 101.082 251.823 100.479 251.68Z" fill="#757575"></path><path d="M124.249 252.505L127.394 248.242H127.989V252.505H128.595V253.516H127.989V255H126.646V253.516H124.249V252.505ZM124.723 252.505H126.646V249.893L124.723 252.505Z" fill="#757575"></path><path d="M150.523 248.379H153.624L153.131 249.639H150.523L150.274 250.298C151.397 250.34 152.262 250.62 152.867 251.138C153.365 251.564 153.614 252.095 153.614 252.729C153.614 253.136 153.499 253.535 153.268 253.926C153.036 254.313 152.711 254.613 152.291 254.824C151.871 255.033 151.41 255.137 150.909 255.137C150.369 255.137 149.954 255.036 149.664 254.834C149.462 254.691 149.361 254.528 149.361 254.346C149.361 254.206 149.413 254.082 149.518 253.975C149.625 253.867 149.749 253.813 149.889 253.813C150.016 253.813 150.144 253.84 150.274 253.892C150.405 253.944 150.628 254.08 150.943 254.302C151.142 254.438 151.313 254.533 151.456 254.585C151.557 254.624 151.671 254.644 151.798 254.644C152.065 254.644 152.291 254.546 152.477 254.351C152.665 254.155 152.76 253.921 152.76 253.647C152.76 253.075 152.473 252.609 151.9 252.251C151.327 251.893 150.605 251.714 149.732 251.714C149.645 251.714 149.513 251.715 149.337 251.719L150.523 248.379Z" fill="#757575"></path><path d="M178.697 248.242V248.379C178.108 248.529 177.634 248.722 177.276 248.96C176.922 249.194 176.64 249.481 176.432 249.819C176.227 250.155 176.067 250.571 175.953 251.069C176.096 250.972 176.215 250.908 176.31 250.879C176.521 250.814 176.734 250.781 176.949 250.781C177.444 250.781 177.856 250.962 178.185 251.323C178.517 251.681 178.683 252.171 178.683 252.793C178.683 253.229 178.593 253.63 178.414 253.994C178.235 254.359 177.981 254.64 177.652 254.839C177.324 255.037 176.972 255.137 176.598 255.137C176.191 255.137 175.815 255.026 175.47 254.805C175.125 254.58 174.854 254.253 174.659 253.823C174.467 253.394 174.371 252.926 174.371 252.422C174.371 251.68 174.549 250.99 174.903 250.352C175.261 249.71 175.768 249.201 176.422 248.823C177.079 248.442 177.838 248.249 178.697 248.242ZM175.89 251.465C175.864 251.914 175.851 252.243 175.851 252.451C175.851 252.9 175.893 253.335 175.978 253.755C176.065 254.175 176.184 254.469 176.334 254.639C176.441 254.759 176.568 254.819 176.715 254.819C176.865 254.819 176.998 254.733 177.115 254.561C177.232 254.385 177.291 254.03 177.291 253.496C177.291 252.598 177.182 251.978 176.964 251.636C176.824 251.414 176.635 251.304 176.397 251.304C176.267 251.304 176.098 251.357 175.89 251.465Z" fill="#757575"></path><path d="M200.772 255.137L202.574 249.673H201.202C200.665 249.673 200.261 249.743 199.991 249.883C199.802 249.98 199.646 250.164 199.522 250.435H199.337L199.815 248.379H203.761L201.539 255.137H200.772Z" fill="#757575"></path><path d="M227.408 251.26C227.874 251.602 228.196 251.921 228.375 252.217C228.557 252.51 228.648 252.847 228.648 253.228C228.648 253.761 228.447 254.214 228.043 254.585C227.643 254.953 227.097 255.137 226.407 255.137C225.753 255.137 225.247 254.976 224.889 254.653C224.531 254.331 224.352 253.937 224.352 253.472C224.352 253.117 224.454 252.806 224.659 252.539C224.868 252.272 225.213 252.028 225.694 251.807C225.17 251.406 224.833 251.079 224.684 250.825C224.537 250.571 224.464 250.277 224.464 249.941C224.464 249.499 224.651 249.11 225.025 248.774C225.403 248.436 225.919 248.267 226.573 248.267C227.205 248.267 227.69 248.416 228.028 248.716C228.37 249.012 228.541 249.368 228.541 249.785C228.541 250.098 228.448 250.374 228.263 250.615C228.08 250.853 227.796 251.068 227.408 251.26ZM227.037 251.011C227.158 250.848 227.247 250.666 227.306 250.464C227.364 250.262 227.394 250.041 227.394 249.8C227.394 249.377 227.302 249.053 227.12 248.828C226.983 248.656 226.795 248.569 226.554 248.569C226.336 248.569 226.15 248.649 225.997 248.809C225.844 248.965 225.768 249.16 225.768 249.395C225.768 249.632 225.852 249.88 226.021 250.137C226.194 250.391 226.533 250.682 227.037 251.011ZM226.061 252.041C225.96 252.132 225.888 252.215 225.846 252.29C225.781 252.404 225.722 252.57 225.67 252.788C225.618 253.006 225.592 253.234 225.592 253.472C225.592 253.778 225.631 254.035 225.709 254.243C225.787 254.448 225.898 254.596 226.041 254.688C226.188 254.779 226.337 254.824 226.49 254.824C226.728 254.824 226.928 254.738 227.091 254.565C227.254 254.39 227.335 254.15 227.335 253.848C227.335 253.216 226.91 252.614 226.061 252.041Z" fill="#757575"></path><line x1="49" y1="223.01" x2="55.0104" y2="216.999" stroke="black" stroke-width="1.5" stroke-linecap="round"></line><line x1="0.75" y1="-0.75" x2="9.25" y2="-0.75" transform="matrix(-0.707107 -0.707107 -0.707107 0.707107 55.0703 224.07)" stroke="black" stroke-width="1.5" stroke-linecap="round"></line><path d="M259.272 242.717C259.386 242.037 259.826 241.252 260.593 240.362C261.36 239.472 262.307 239.018 263.432 239.002C264.003 239.002 264.526 239.148 264.999 239.439C265.472 239.731 265.823 240.095 266.051 240.532C266.737 239.512 267.561 239.002 268.523 239.002C269.127 239.002 269.649 239.18 270.09 239.536C270.53 239.892 270.759 240.37 270.775 240.969C270.775 241.438 270.661 241.818 270.432 242.11C270.204 242.401 269.984 242.579 269.772 242.644C269.559 242.709 269.372 242.741 269.209 242.741C268.899 242.741 268.646 242.652 268.45 242.474C268.254 242.296 268.156 242.061 268.156 241.77C268.156 241.025 268.564 240.516 269.38 240.24C269.2 240.03 268.874 239.925 268.401 239.925C268.189 239.925 268.034 239.941 267.936 239.973C267.316 240.232 266.859 240.766 266.565 241.576C265.586 245.153 265.097 247.24 265.097 247.839C265.097 248.292 265.227 248.616 265.488 248.81C265.749 249.005 266.035 249.102 266.345 249.102C266.949 249.102 267.544 248.835 268.132 248.301C268.719 247.766 269.119 247.111 269.331 246.334C269.38 246.172 269.429 246.083 269.478 246.067C269.527 246.051 269.657 246.035 269.869 246.018H269.967C270.212 246.018 270.334 246.083 270.334 246.213C270.334 246.229 270.318 246.318 270.286 246.48C270.024 247.402 269.519 248.22 268.768 248.932C268.017 249.644 267.145 250 266.149 250C265.007 250 264.142 249.49 263.555 248.471C262.886 249.474 262.119 249.976 261.254 249.976H261.107C260.308 249.976 259.737 249.765 259.394 249.345C259.051 248.924 258.872 248.479 258.855 248.009C258.855 247.491 259.01 247.07 259.321 246.747C259.631 246.423 259.998 246.261 260.422 246.261C261.124 246.261 261.474 246.601 261.474 247.281C261.474 247.605 261.376 247.888 261.181 248.131C260.985 248.373 260.797 248.535 260.618 248.616C260.438 248.697 260.332 248.738 260.3 248.738L260.226 248.762C260.226 248.778 260.275 248.81 260.373 248.859C260.471 248.908 260.601 248.964 260.765 249.029C260.928 249.094 261.083 249.118 261.23 249.102C261.817 249.102 262.323 248.738 262.747 248.009C262.894 247.75 263.082 247.2 263.31 246.358C263.538 245.517 263.767 244.643 263.995 243.736C264.224 242.83 264.354 242.296 264.387 242.134C264.469 241.697 264.509 241.381 264.509 241.187C264.509 240.734 264.387 240.41 264.142 240.216C263.897 240.022 263.62 239.925 263.31 239.925C262.657 239.925 262.045 240.184 261.474 240.702C260.903 241.22 260.503 241.883 260.275 242.692C260.242 242.838 260.202 242.919 260.153 242.935C260.104 242.951 259.973 242.968 259.761 242.984H259.418C259.321 242.887 259.272 242.798 259.272 242.717Z" fill="black"></path><g clip-path="url(#clip0_2023:36835)"><path d="M22.4297 3.35394C22.4297 3.15198 22.5317 2.80577 22.7357 2.3153C22.9398 1.82483 23.2662 1.31273 23.7151 0.77898C24.164 0.245234 24.6673 -0.0144253 25.225 0C25.7827 0 26.2315 0.165895 26.5716 0.497682C26.9117 0.82947 27.0885 1.29109 27.1021 1.88253C27.0749 2.15662 27.0545 2.30809 27.0409 2.33694C27.0409 2.38022 26.9321 2.712 26.7144 3.3323C26.4968 3.9526 26.2724 4.65224 26.0411 5.43122C25.8099 6.2102 25.7011 6.8305 25.7147 7.29212C25.7147 7.91242 25.8099 8.34518 26.0003 8.59042C26.1907 8.83565 26.4764 8.96548 26.8573 8.97991C27.1701 8.97991 27.4626 8.90057 27.7346 8.74189C28.0067 8.5832 28.2175 8.41731 28.3671 8.2442C28.5167 8.0711 28.7004 7.83308 28.918 7.53014C28.918 7.51571 28.952 7.37146 29.02 7.09737C29.088 6.82329 29.1833 6.39773 29.3057 5.82071C29.4281 5.24369 29.5573 4.70994 29.6933 4.21947C30.2102 2.05564 30.4959 0.923236 30.5503 0.822257C30.7271 0.432767 31.0196 0.238022 31.4276 0.238022C31.6045 0.238022 31.7473 0.288511 31.8561 0.38949C31.9649 0.490469 32.0397 0.577023 32.0806 0.64915C32.1214 0.721278 32.135 0.786193 32.1214 0.843895C32.1214 1.03143 31.7881 2.54611 31.1216 5.38794C30.4551 8.22978 30.0742 9.78774 29.979 10.0618C29.5981 11.2591 28.9384 12.2112 27.9998 12.9181C27.0613 13.6249 26.1227 13.9856 25.1842 14C24.5721 14 24.0348 13.8413 23.5723 13.524C23.1098 13.2066 22.8786 12.7306 22.8786 12.0958C22.8786 11.7785 22.9262 11.5116 23.0214 11.2952C23.1166 11.0788 23.2458 10.9201 23.4091 10.8192C23.5723 10.7182 23.7083 10.6461 23.8171 10.6028C23.9259 10.5595 24.0416 10.5379 24.164 10.5379C24.7625 10.5379 25.0617 10.8408 25.0617 11.4467C25.0617 11.7352 24.9801 11.9876 24.8169 12.204C24.6537 12.4204 24.4972 12.5647 24.3476 12.6368C24.198 12.7089 24.1096 12.745 24.0824 12.745L24.0212 12.7666C24.0484 12.8387 24.1776 12.9253 24.4088 13.0263C24.6401 13.1273 24.8713 13.1777 25.1025 13.1777H25.2658C25.497 13.1777 25.6738 13.1633 25.7963 13.1345C26.2451 13.0046 26.66 12.7306 27.0409 12.3122C27.4218 11.8939 27.7142 11.4467 27.9182 10.9706C28.1223 10.4946 28.2787 10.0907 28.3875 9.75889C28.4963 9.4271 28.5507 9.21072 28.5507 9.10974L28.4283 9.19629C28.3467 9.25399 28.2175 9.33333 28.0407 9.43431C27.8638 9.53529 27.687 9.62184 27.5102 9.69397C27.2381 9.7661 26.9729 9.80216 26.7144 9.80216C26.0887 9.80216 25.5378 9.64348 25.0617 9.32612C24.5857 9.00876 24.2728 8.49665 24.1232 7.7898C24.1096 7.68882 24.1028 7.46522 24.1028 7.11901C24.1028 6.29675 24.3408 5.22205 24.8169 3.8949C25.293 2.56775 25.531 1.72385 25.531 1.36322C25.531 1.34879 25.531 1.33436 25.531 1.31994C25.531 1.19011 25.531 1.10356 25.531 1.06028C25.531 1.017 25.5038 0.966513 25.4494 0.908811C25.395 0.851109 25.3202 0.822257 25.225 0.822257H25.1434C24.8305 0.822257 24.5449 0.9593 24.2864 1.23339C24.028 1.50747 23.8239 1.80319 23.6743 2.12056C23.5247 2.43792 23.4091 2.74086 23.3274 3.02937C23.2458 3.31788 23.1914 3.47656 23.1642 3.50541C23.137 3.53426 23.0282 3.54869 22.8378 3.54869H22.5521C22.4705 3.46213 22.4297 3.39722 22.4297 3.35394Z" fill="black"></path></g><path d="M47.6702 210.704C47.6702 211.76 47.3627 212.778 46.7476 213.761C46.1324 214.743 45.3395 215.527 44.3688 216.115C43.3981 216.702 42.4033 216.996 41.3845 216.996C40.4522 216.996 39.6545 216.734 38.9913 216.211C38.3282 215.688 37.9101 214.926 37.7371 213.926C37.7275 213.852 37.7227 213.655 37.7227 213.334C37.7227 212.397 37.9533 211.507 38.4147 210.663C38.876 209.818 39.4959 209.07 40.2744 208.418C41.4662 207.473 42.6628 207 43.8642 207C44.2294 207 44.4601 207.005 44.5562 207.014C45.4885 207.143 46.2382 207.537 46.8052 208.198C47.3723 208.859 47.6606 209.694 47.6702 210.704ZM46.1853 210.14C46.1853 209.323 45.9642 208.685 45.5221 208.226C45.08 207.767 44.5274 207.537 43.8642 207.537C43.0953 207.537 42.3552 207.813 41.644 208.363C40.8751 208.942 40.2888 209.754 39.8852 210.8C39.4815 211.847 39.2749 212.82 39.2653 213.719C39.2653 214.545 39.4719 215.202 39.8852 215.688C40.2985 216.175 40.8463 216.422 41.5287 216.432C42.3937 216.432 43.2154 216.069 43.994 215.344C44.7725 214.619 45.3635 213.632 45.7672 212.384C46.0459 211.512 46.1853 210.764 46.1853 210.14Z" fill="black"></path><rect x="1" y="20" width="251" height="249" stroke="#FF4081" stroke-width="2"></rect><defs><clipPath id="clip0_2023:36835"><rect width="10" height="14" fill="white" transform="translate(22)"></rect></clipPath></defs></svg> 