<svg xmlns="http://www.w3.org/2000/svg" width="492.8" height="218.2pt" viewBox="0 0 369.6 218.2" class="displayed_equation">
  <path d="M 534.21875 539.070313 L 3572.070313 539.070313 M 534.21875 615.007813 L 3572.070313 615.007813 M 534.21875 690.945313 L 3572.070313 690.945313 M 534.21875 766.921875 L 3572.070313 766.921875 M 534.21875 842.859375 L 3572.070313 842.859375 M 534.21875 918.796875 L 3572.070313 918.796875 M 534.21875 994.734375 L 3572.070313 994.734375 M 534.21875 1070.671875 L 3572.070313 1070.671875 M 534.21875 1146.648438 L 3572.070313 1146.648438 M 534.21875 1222.585938 L 3572.070313 1222.585938 M 534.21875 1298.523438 L 3572.070313 1298.523438 M 534.21875 1374.460938 L 3572.070313 1374.460938 M 534.21875 1450.4375 L 3572.070313 1450.4375 M 534.21875 1526.375 L 3572.070313 1526.375 M 534.21875 1602.3125 L 3572.070313 1602.3125 M 534.21875 1678.25 L 3572.070313 1678.25 M 534.21875 1754.226563 L 3572.070313 1754.226563 M 534.21875 1830.164063 L 3572.070313 1830.164063 M 534.21875 1906.101563 L 3572.070313 1906.101563 M 534.21875 1982.039063 L 3572.070313 1982.039063 M 534.21875 2057.976563 L 3572.070313 2057.976563 M 534.21875 539.070313 L 534.21875 2057.976563 M 610.15625 539.070313 L 610.15625 2057.976563 M 686.09375 539.070313 L 686.09375 2057.976563 M 762.070313 539.070313 L 762.070313 2057.976563 M 838.007813 539.070313 L 838.007813 2057.976563 M 913.945313 539.070313 L 913.945313 2057.976563 M 989.882813 539.070313 L 989.882813 2057.976563 M 1065.859375 539.070313 L 1065.859375 2057.976563 M 1141.796875 539.070313 L 1141.796875 2057.976563 M 1217.734375 539.070313 L 1217.734375 2057.976563 M 1293.671875 539.070313 L 1293.671875 2057.976563 M 1369.648438 539.070313 L 1369.648438 2057.976563 M 1445.585938 539.070313 L 1445.585938 2057.976563 M 1521.523438 539.070313 L 1521.523438 2057.976563 M 1597.460938 539.070313 L 1597.460938 2057.976563 M 1673.398438 539.070313 L 1673.398438 2057.976563 M 1749.375 539.070313 L 1749.375 2057.976563 M 1825.3125 539.070313 L 1825.3125 2057.976563 M 1901.25 539.070313 L 1901.25 2057.976563 M 1977.1875 539.070313 L 1977.1875 2057.976563 M 2053.125 539.070313 L 2053.125 2057.976563 M 2129.101563 539.070313 L 2129.101563 2057.976563 M 2205.039063 539.070313 L 2205.039063 2057.976563 M 2280.976563 539.070313 L 2280.976563 2057.976563 M 2356.914063 539.070313 L 2356.914063 2057.976563 M 2432.851563 539.070313 L 2432.851563 2057.976563 M 2508.828125 539.070313 L 2508.828125 2057.976563 M 2584.765625 539.070313 L 2584.765625 2057.976563 M 2660.703125 539.070313 L 2660.703125 2057.976563 M 2736.640625 539.070313 L 2736.640625 2057.976563 M 2812.617188 539.070313 L 2812.617188 2057.976563 M 2888.554688 539.070313 L 2888.554688 2057.976563 M 2964.492188 539.070313 L 2964.492188 2057.976563 M 3040.429688 539.070313 L 3040.429688 2057.976563 M 3116.367188 539.070313 L 3116.367188 2057.976563 M 3192.34375 539.070313 L 3192.34375 2057.976563 M 3268.28125 539.070313 L 3268.28125 2057.976563 M 3344.21875 539.070313 L 3344.21875 2057.976563 M 3420.15625 539.070313 L 3420.15625 2057.976563 M 3496.09375 539.070313 L 3496.09375 2057.976563 M 3572.070313 539.070313 L 3572.070313 2057.976563" transform="matrix(.1 0 0 -.1 0 218.2)" fill="none" stroke-width="3.985" stroke-linecap="round" stroke-linejoin="round" stroke="#d2d2d3" stroke-miterlimit="10" />
  <path d="M 534.21875 539.070313 L 3572.070313 539.070313 M 534.21875 842.859375 L 3572.070313 842.859375 M 534.21875 1146.648438 L 3572.070313 1146.648438 M 534.21875 1450.4375 L 3572.070313 1450.4375 M 534.21875 1754.226563 L 3572.070313 1754.226563 M 534.21875 2057.898438 L 3572.070313 2057.898438 M 534.21875 539.070313 L 534.21875 2057.976563 M 838.007813 539.070313 L 838.007813 2057.976563 M 1141.796875 539.070313 L 1141.796875 2057.976563 M 1445.585938 539.070313 L 1445.585938 2057.976563 M 1749.375 539.070313 L 1749.375 2057.976563 M 2053.125 539.070313 L 2053.125 2057.976563 M 2356.914063 539.070313 L 2356.914063 2057.976563 M 2660.703125 539.070313 L 2660.703125 2057.976563 M 2964.492188 539.070313 L 2964.492188 2057.976563 M 3268.28125 539.070313 L 3268.28125 2057.976563 M 3571.953125 539.070313 L 3571.953125 2057.976563" transform="matrix(.1 0 0 -.1 0 218.2)" fill="none" stroke-width="7.97" stroke-linecap="round" stroke-linejoin="round" stroke="#a5a5a6" stroke-miterlimit="10" />
  <path d="M 534.21875 2057.976563 L 534.21875 539.070313 L 3572.070313 539.070313" transform="matrix(.1 0 0 -.1 0 218.2)" fill="none" stroke-width="7.97" stroke-linecap="round" stroke-linejoin="round" stroke="#000" stroke-miterlimit="10" />
  <path d="M18.46875 134.078125L16.265625 134.160156 16.265625 141.316406 16.667969 141.316406C16.667969 140.347656 16.855469 140.011719 17.785156 140.011719L23.539063 140.011719C24.535156 140.011719 24.695313 140.226563 24.695313 141.316406L25.101563 141.316406 25.101563 137.375 24.695313 137.375C24.695313 138.425781 24.535156 138.773438 23.621094 138.773438L20.796875 138.773438 20.796875 137.1875C20.796875 136.03125 20.972656 135.761719 22.0625 135.761719L22.0625 135.304688 18.941406 135.304688 18.941406 135.761719C20.03125 135.761719 20.273438 136.03125 20.273438 137.1875L20.273438 138.773438 16.867188 138.773438 16.867188 136.636719C16.867188 134.875 17.191406 134.753906 18.46875 134.511719L18.46875 134.078125M18.617188 131.640625L18.617188 131.960938 19.023438 133.628906 19.398438 133.628906C19.398438 133.628906 19.371094 133.480469 19.371094 133.210938 19.371094 132.726563 19.613281 132.726563 20.097656 132.726563L23.796875 132.726563C24.546875 132.726563 24.710938 132.820313 24.710938 133.710938L25.101563 133.710938 25.101563 130.347656 24.710938 130.347656C24.710938 131.355469 24.574219 131.613281 23.726563 131.613281L20.664063 131.613281C20.125 131.289063 19.558594 130.859375 19.558594 130.550781 19.558594 130.386719 20.015625 130.117188 20.015625 129.675781 20.015625 129.378906 19.800781 129.085938 19.289063 129.085938 18.832031 129.085938 18.539063 129.339844 18.539063 129.863281 18.539063 130.507813 19.007813 130.914063 20.003906 131.597656L20.003906 131.640625 18.617188 131.640625M23.175781 123.519531C23.742188 123.949219 24.226563 124.367188 24.226563 125.453125 24.226563 126.53125 23.378906 127.554688 21.523438 127.554688L21.523438 123.304688C19.640625 123.371094 18.578125 124.339844 18.578125 125.804688 18.578125 127.378906 19.652344 128.640625 21.898438 128.640625 24.0625 128.640625 25.234375 127.390625 25.234375 125.777344 25.234375 124.390625 24.386719 123.746094 23.367188 123.261719zM21.023438 127.566406C19.773438 127.460938 19.117188 126.921875 19.117188 126.007813 19.117188 125.050781 20.03125 124.609375 21.023438 124.566406L21.023438 127.566406M28.058594 116.082031L27.683594 116.082031C27.683594 116.835938 27.453125 116.96875 26.765625 116.96875L18.632813 116.96875 18.632813 117.46875 19.074219 117.828125C18.699219 118.394531 18.578125 118.851563 18.578125 119.417969 18.578125 121.125 19.988281 122.457031 22.140625 122.457031 24.011719 122.457031 25.207031 121.570313 25.207031 120.171875 25.207031 119.296875 24.777344 118.71875 24.253906 118.125L24.253906 118.085938 26.621094 118.085938C27.453125 118.085938 27.683594 118.246094 27.683594 119.335938L28.058594 119.335938zM23.714844 118.085938C24.023438 118.460938 24.226563 118.867188 24.226563 119.523438 24.226563 120.867188 23.097656 121.300781 21.628906 121.300781 19.949219 121.300781 19.117188 120.558594 19.117188 119.429688 19.117188 118.71875 19.503906 118.261719 20.179688 118.085938L23.714844 118.085938M24.496094 108.636719L24.496094 108.773438C24.496094 109.417969 24.398438 109.578125 23.609375 109.578125L18.671875 109.578125 18.671875 109.902344 18.875 111.785156 19.25 111.785156C19.25 110.921875 19.316406 110.695313 20.03125 110.695313L23.566406 110.695313C24.039063 111.234375 24.375 111.664063 24.375 112.351563 24.375 113.046875 23.96875 113.558594 22.597656 113.558594L18.671875 113.558594 18.671875 113.855469 18.875 115.589844 19.25 115.589844C19.261719 114.863281 19.316406 114.675781 20.042969 114.675781L22.773438 114.675781C24.601563 114.675781 25.234375 114.03125 25.234375 112.914063 25.234375 112.054688 24.832031 111.421875 24.132813 110.710938L24.132813 110.640625 25.167969 110.640625 25.167969 110.34375 24.859375 108.636719 24.496094 108.636719M23.175781 102.617188C23.742188 103.046875 24.226563 103.464844 24.226563 104.554688 24.226563 105.632813 23.378906 106.652344 21.523438 106.652344L21.523438 102.402344C19.640625 102.46875 18.578125 103.4375 18.578125 104.90625 18.578125 106.476563 19.652344 107.742188 21.898438 107.742188 24.0625 107.742188 25.234375 106.492188 25.234375 104.878906 25.234375 103.492188 24.386719 102.847656 23.367188 102.363281zM21.023438 106.667969C19.773438 106.558594 19.117188 106.023438 19.117188 105.105469 19.117188 104.152344 20.03125 103.707031 21.023438 103.667969L21.023438 106.667969M20.972656 95.53125C19.425781 95.53125 18.578125 96.109375 18.578125 97.332031 18.578125 98.179688 19.0625 98.773438 19.707031 99.496094L19.707031 99.550781 18.617188 99.539063 18.617188 99.847656 19.007813 101.554688 19.398438 101.554688C19.398438 101.554688 19.371094 101.421875 19.371094 101.195313 19.371094 100.828125 19.476563 100.628906 19.960938 100.628906L23.742188 100.628906C24.496094 100.628906 24.722656 100.667969 24.722656 101.570313L25.101563 101.570313 25.101563 98.492188 24.722656 98.492188C24.722656 99.457031 24.496094 99.511719 23.742188 99.511719L20.285156 99.511719C19.921875 99.109375 19.4375 98.609375 19.4375 97.882813 19.4375 97.28125 19.695313 96.648438 21.308594 96.648438L23.742188 96.648438C24.496094 96.648438 24.722656 96.6875 24.722656 97.640625L25.101563 97.640625 25.101563 94.535156 24.722656 94.535156C24.722656 95.4375 24.496094 95.53125 23.742188 95.53125L20.972656 95.53125M23.109375 88.710938C23.890625 89.320313 24.226563 89.773438 24.226563 90.648438 24.226563 92.035156 23.070313 92.695313 21.429688 92.695313 19.882813 92.695313 19.074219 92.035156 19.074219 90.945313 19.074219 89.789063 20.609375 90.234375 20.609375 89.238281 20.609375 88.859375 20.390625 88.671875 20.003906 88.671875 19.222656 88.671875 18.578125 89.453125 18.578125 90.71875 18.578125 92.652344 19.949219 93.757813 22.0625 93.757813 23.929688 93.757813 25.234375 92.746094 25.234375 91.066406 25.234375 89.628906 24.386719 88.96875 23.296875 88.457031L23.109375 88.710938M18.738281 81.570313L18.738281 83.855469 19.128906 83.855469C19.128906 83.410156 19.195313 83.101563 19.464844 83.101563 19.570313 83.101563 19.695313 83.144531 19.800781 83.171875L23.742188 84.460938 23.742188 84.554688 23.042969 84.742188 20.085938 86.0625C19.894531 86.140625 19.667969 86.25 19.503906 86.25 19.261719 86.25 19.140625 86.089844 19.140625 85.484375L18.738281 85.484375 18.738281 88.359375 19.128906 88.359375C19.128906 87.878906 19.304688 87.6875 19.613281 87.554688L23.929688 85.578125C24.292969 85.414063 24.859375 85.171875 25.03125 85.171875 25.421875 85.171875 27.089844 85.941406 27.089844 86.371094 27.089844 86.707031 26.796875 86.988281 26.796875 87.460938 26.796875 87.824219 26.96875 88.09375 27.375 88.09375 27.882813 88.09375 28.070313 87.703125 28.070313 87.097656 28.070313 86.007813 27.375 85.347656 25.394531 84.59375L19.882813 82.496094C19.359375 82.308594 19.128906 82.109375 19.128906 81.570313L18.738281 81.570313M16.265625 78.128906L16.667969 78.128906C16.667969 77.121094 16.816406 76.8125 17.796875 76.8125L23.433594 76.8125C24.523438 76.8125 24.695313 76.945313 24.695313 78.128906L25.101563 78.128906 25.101563 74.28125C25.101563 71.378906 23.726563 69.453125 20.632813 69.453125 17.351563 69.453125 16.265625 71.632813 16.265625 74.429688zM16.84375 75.574219C16.816406 75.320313 16.816406 75.128906 16.816406 74.914063 16.816406 72.132813 18.203125 70.867188 20.757813 70.867188 23.78125 70.867188 24.589844 72.332031 24.589844 74.78125 24.589844 75.050781 24.574219 75.304688 24.546875 75.574219L16.84375 75.574219M23.175781 63.21875C23.742188 63.648438 24.226563 64.066406 24.226563 65.15625 24.226563 66.230469 23.378906 67.253906 21.523438 67.253906L21.523438 63.003906C19.640625 63.070313 18.578125 64.039063 18.578125 65.503906 18.578125 67.078125 19.652344 68.34375 21.898438 68.34375 24.0625 68.34375 25.234375 67.09375 25.234375 65.476563 25.234375 64.09375 24.386719 63.445313 23.367188 62.960938zM21.023438 67.265625C19.773438 67.160156 19.117188 66.621094 19.117188 65.707031 19.117188 64.753906 20.03125 64.308594 21.023438 64.265625L21.023438 67.265625M20.972656 56.03125C19.425781 56.03125 18.578125 56.609375 18.578125 57.832031 18.578125 58.679688 19.0625 59.273438 19.707031 59.996094L19.707031 60.050781 18.617188 60.039063 18.617188 60.347656 19.007813 62.054688 19.398438 62.054688C19.398438 62.054688 19.371094 61.921875 19.371094 61.695313 19.371094 61.328125 19.476563 61.128906 19.960938 61.128906L23.742188 61.128906C24.496094 61.128906 24.722656 61.167969 24.722656 62.070313L25.101563 62.070313 25.101563 58.992188 24.722656 58.992188C24.722656 59.957031 24.496094 60.011719 23.742188 60.011719L20.285156 60.011719C19.921875 59.609375 19.4375 59.109375 19.4375 58.382813 19.4375 57.78125 19.695313 57.148438 21.308594 57.148438L23.742188 57.148438C24.496094 57.148438 24.722656 57.1875 24.722656 58.140625L25.101563 58.140625 25.101563 55.035156 24.722656 55.035156C24.722656 55.9375 24.496094 56.03125 23.742188 56.03125L20.972656 56.03125M22.894531 54.273438L25.207031 54.234375 25.207031 53.953125 24.898438 53.671875 24.898438 53.644531C25.046875 53.292969 25.25 52.890625 25.25 52.109375 25.25 50.898438 24.765625 49.851563 23.5 49.851563 22.503906 49.851563 22.007813 50.507813 21.359375 51.734375 20.78125 52.863281 20.445313 53.308594 19.921875 53.308594 19.316406 53.308594 19.035156 52.835938 19.035156 52.21875 19.035156 51.398438 19.425781 50.898438 20.703125 50.605469L20.703125 50.242188 18.644531 50.28125 18.644531 50.550781 18.925781 50.777344 18.925781 50.792969C18.765625 51.128906 18.578125 51.53125 18.578125 52.203125 18.578125 53.359375 19.167969 54.261719 20.273438 54.261719 21.265625 54.261719 21.738281 53.710938 22.355469 52.488281 22.976563 51.234375 23.230469 50.980469 23.863281 50.980469 24.496094 50.980469 24.75 51.464844 24.75 52.136719 24.75 53.132813 24.28125 53.644531 22.894531 53.925781L22.894531 54.273438M15.78125 47.550781C15.78125 48.019531 16.128906 48.316406 16.53125 48.316406 16.949219 48.316406 17.300781 48.007813 17.300781 47.550781 17.300781 47.078125 16.949219 46.78125 16.53125 46.78125 16.128906 46.78125 15.78125 47.078125 15.78125 47.550781zM24.722656 46.042969C24.722656 46.945313 24.523438 47.011719 23.742188 47.011719L18.617188 47.011719 18.617188 47.359375 18.992188 49.054688 19.382813 49.054688C19.382813 49.054688 19.359375 48.90625 19.359375 48.71875 19.359375 48.328125 19.410156 48.128906 19.988281 48.128906L23.742188 48.128906C24.507813 48.128906 24.722656 48.167969 24.722656 49.070313L25.101563 49.070313 25.101563 46.042969 24.722656 46.042969M23.890625 41.660156C24.265625 41.996094 24.441406 42.171875 24.441406 42.601563 24.441406 43.125 24.117188 43.246094 23.164063 43.246094L19.304688 43.246094 19.304688 41.726563 18.738281 41.726563 18.738281 43.246094 16.898438 43.234375 16.898438 43.582031C18.039063 44.066406 18.605469 44.46875 18.992188 45.101563L19.304688 45.101563 19.304688 44.363281 23.539063 44.363281C24.75 44.363281 25.234375 43.972656 25.234375 43.070313 25.234375 42.210938 24.832031 41.929688 24.105469 41.40625L23.890625 41.660156M18.738281 34.769531L18.738281 37.054688 19.128906 37.054688C19.128906 36.613281 19.195313 36.304688 19.464844 36.304688 19.570313 36.304688 19.695313 36.34375 19.800781 36.371094L23.742188 37.660156 23.742188 37.753906 23.042969 37.945313 20.085938 39.261719C19.894531 39.34375 19.667969 39.449219 19.503906 39.449219 19.261719 39.449219 19.140625 39.289063 19.140625 38.683594L18.738281 38.683594 18.738281 41.5625 19.128906 41.5625C19.128906 41.078125 19.304688 40.890625 19.613281 40.753906L23.929688 38.777344C24.292969 38.617188 24.859375 38.371094 25.03125 38.371094 25.421875 38.371094 27.089844 39.140625 27.089844 39.570313 27.089844 39.90625 26.796875 40.1875 26.796875 40.660156 26.796875 41.023438 26.96875 41.292969 27.375 41.292969 27.882813 41.292969 28.070313 40.902344 28.070313 40.296875 28.070313 39.207031 27.375 38.546875 25.394531 37.796875L19.882813 35.699219C19.359375 35.507813 19.128906 35.308594 19.128906 34.769531L18.738281 34.769531M174.816406 193.21875L174.722656 190.53125 174.371094 190.53125C174.304688 190.8125 174.171875 190.921875 173.957031 190.921875 173.632813 190.921875 173.339844 190.503906 172.113281 190.503906 170.714844 190.515625 169.558594 191.269531 169.558594 192.679688 169.558594 194.09375 170.648438 194.738281 171.726563 195.359375 172.828125 195.992188 173.957031 196.460938 173.957031 197.644531 173.957031 198.664063 173.324219 199.070313 172.316406 199.070313 170.945313 199.082031 170.257813 198.652344 169.789063 196.796875L169.371094 196.796875 169.492188 199.703125 169.910156 199.703125C169.921875 199.433594 170.082031 199.257813 170.273438 199.257813 170.582031 199.257813 171.105469 199.660156 172.503906 199.660156 174.0625 199.660156 175.234375 198.8125 175.234375 197.253906 175.234375 195.652344 173.902344 195.046875 172.707031 194.375 171.695313 193.796875 170.730469 193.3125 170.730469 192.304688 170.730469 191.472656 171.253906 191.039063 172.167969 191.039063 173.527344 191.027344 174.039063 191.742188 174.414063 193.21875L174.816406 193.21875M177.96875 193.015625L177.632813 193.015625 175.9375 193.394531 175.9375 193.785156C175.9375 193.785156 176.191406 193.757813 176.367188 193.757813 176.8125 193.757813 176.878906 193.933594 176.878906 194.445313L176.878906 201.101563C176.878906 201.851563 176.742188 202.082031 175.894531 202.082031L175.894531 202.460938 179.296875 202.460938 179.296875 202.070313C178.25 202.070313 177.992188 201.894531 177.992188 201.019531L177.992188 199.257813 178.046875 199.257813C178.4375 199.527344 178.894531 199.632813 179.40625 199.632813 181.019531 199.632813 182.351563 198.277344 182.351563 195.992188 182.351563 194.226563 181.421875 192.976563 180.09375 192.976563 179.296875 192.976563 178.652344 193.394531 178.007813 194.148438L177.96875 194.148438zM177.992188 194.710938C178.25 194.375 178.828125 193.890625 179.539063 193.890625 180.535156 193.890625 181.128906 194.671875 181.128906 196.367188 181.128906 198.234375 180.414063 199.109375 179.472656 199.109375 178.71875 199.109375 178.25 198.503906 177.992188 198.222656L177.992188 194.710938M188.480469 197.578125C188.050781 198.140625 187.632813 198.625 186.546875 198.625 185.46875 198.625 184.445313 197.777344 184.445313 195.921875L188.695313 195.921875C188.628906 194.039063 187.660156 192.976563 186.195313 192.976563 184.621094 192.976563 183.359375 194.054688 183.359375 196.296875 183.359375 198.464844 184.609375 199.632813 186.222656 199.632813 187.609375 199.632813 188.253906 198.789063 188.738281 197.765625zM184.433594 195.425781C184.539063 194.175781 185.078125 193.515625 185.992188 193.515625 186.949219 193.515625 187.390625 194.429688 187.433594 195.425781L184.433594 195.425781M194.679688 197.578125C194.253906 198.140625 193.835938 198.625 192.746094 198.625 191.667969 198.625 190.648438 197.777344 190.648438 195.921875L194.898438 195.921875C194.828125 194.039063 193.859375 192.976563 192.394531 192.976563 190.820313 192.976563 189.558594 194.054688 189.558594 196.296875 189.558594 198.464844 190.808594 199.632813 192.421875 199.632813 193.808594 199.632813 194.453125 198.789063 194.9375 197.765625zM190.632813 195.425781C190.742188 194.175781 191.277344 193.515625 192.195313 193.515625 193.148438 193.515625 193.59375 194.429688 193.632813 195.425781L190.632813 195.425781M202.214844 199.257813L202.214844 198.894531 201.929688 198.894531C201.433594 198.894531 201.257813 198.761719 201.257813 198.0625L201.257813 190.003906 200.894531 190.003906 199.199219 190.476563 199.199219 190.851563C199.199219 190.851563 199.429688 190.824219 199.550781 190.824219 200.074219 190.824219 200.140625 190.945313 200.140625 191.539063L200.140625 193.300781C199.726563 193.070313 199.28125 192.976563 198.839844 192.976563 197.140625 192.976563 195.742188 194.335938 195.742188 196.554688 195.742188 198.277344 196.523438 199.609375 198.042969 199.609375 198.929688 199.609375 199.617188 199.097656 200.128906 198.640625L200.179688 198.640625 200.179688 199.566406 200.492188 199.566406zM200.140625 198.140625C199.671875 198.464844 199.308594 198.640625 198.675781 198.640625 197.53125 198.640625 196.914063 197.886719 196.914063 196.03125 196.914063 194.335938 197.679688 193.515625 198.808594 193.515625 199.644531 193.515625 200.035156 194.039063 200.140625 194.589844L200.140625 198.140625M206.378906 195.816406C206.378906 198.773438 207.789063 200.886719 209.957031 202L210.171875 201.625C208.207031 200.335938 207.480469 198.519531 207.480469 195.816406 207.480469 193.140625 208.207031 191.335938 210.171875 190.03125L209.957031 189.683594C207.789063 190.785156 206.378906 192.882813 206.378906 195.816406M212.988281 194.699219C213.378906 194.335938 213.96875 193.835938 214.667969 193.835938 215.289063 193.835938 215.746094 194.132813 215.746094 195.277344L215.746094 197.941406C215.746094 198.882813 215.664063 199.109375 214.710938 199.109375L214.710938 199.5 217.898438 199.5 217.898438 199.109375C216.929688 199.109375 216.859375 198.867188 216.859375 197.941406L216.859375 194.671875C217.304688 194.296875 217.855469 193.835938 218.40625 193.835938 219.039063 193.835938 219.5625 194.132813 219.5625 195.359375L219.5625 197.941406C219.5625 198.761719 219.523438 199.109375 218.609375 199.109375L218.609375 199.5 221.648438 199.5 221.648438 199.109375C220.71875 199.109375 220.679688 198.789063 220.679688 197.941406L220.679688 195.195313C220.679688 193.570313 219.996094 192.976563 218.945313 192.976563 218.234375 192.976563 217.546875 193.367188 216.808594 194.09375L216.753906 194.09375C216.484375 193.449219 216.027344 192.976563 215.261719 192.976563 214.347656 192.976563 213.726563 193.476563 213.003906 194.109375L212.949219 194.109375 212.949219 193.015625 212.625 193.015625 210.945313 193.40625 210.945313 193.796875C210.945313 193.796875 211.105469 193.769531 211.304688 193.769531 211.683594 193.769531 211.871094 193.890625 211.871094 194.375L211.871094 198.140625C211.871094 198.949219 211.777344 199.109375 210.929688 199.109375L210.929688 199.5 213.996094 199.5 213.996094 199.109375C213.164063 199.109375 212.988281 198.949219 212.988281 198.195313L212.988281 194.699219M224.367188 193.015625L224.03125 193.015625 222.335938 193.394531 222.335938 193.785156C222.335938 193.785156 222.59375 193.757813 222.765625 193.757813 223.210938 193.757813 223.277344 193.933594 223.277344 194.445313L223.277344 201.101563C223.277344 201.851563 223.144531 202.082031 222.296875 202.082031L222.296875 202.460938 225.699219 202.460938 225.699219 202.070313C224.648438 202.070313 224.394531 201.894531 224.394531 201.019531L224.394531 199.257813 224.449219 199.257813C224.839844 199.527344 225.296875 199.632813 225.804688 199.632813 227.421875 199.632813 228.753906 198.277344 228.753906 195.992188 228.753906 194.226563 227.824219 192.976563 226.492188 192.976563 225.699219 192.976563 225.054688 193.394531 224.40625 194.148438L224.367188 194.148438zM224.394531 194.710938C224.648438 194.375 225.226563 193.890625 225.941406 193.890625 226.9375 193.890625 227.527344 194.671875 227.527344 196.367188 227.527344 198.234375 226.8125 199.109375 225.871094 199.109375 225.121094 199.109375 224.648438 198.503906 224.394531 198.222656L224.394531 194.710938M231.660156 194.671875C232.320313 194.066406 232.804688 193.835938 233.328125 193.835938 234.417969 193.835938 234.566406 194.765625 234.566406 195.867188L234.566406 198.195313C234.566406 198.839844 234.511719 199.109375 233.585938 199.109375L233.585938 199.5 236.679688 199.5 236.679688 199.109375C235.828125 199.109375 235.683594 198.855469 235.683594 198.140625L235.683594 195.464844C235.683594 194.363281 235.425781 192.976563 233.878906 192.976563 233.167969 192.976563 232.546875 193.285156 231.703125 194.078125L231.660156 194.078125 231.660156 190.003906 231.296875 190.003906 229.496094 190.476563 229.496094 190.851563C229.496094 190.851563 229.671875 190.824219 229.886719 190.824219 230.246094 190.824219 230.546875 190.890625 230.546875 191.363281L230.546875 198.25C230.546875 199.003906 230.304688 199.109375 229.601563 199.109375L229.601563 199.5 232.65625 199.5 232.65625 199.109375C231.726563 199.109375 231.660156 198.894531 231.660156 198.195313L231.660156 194.671875M241.210938 195.816406C241.210938 192.882813 239.796875 190.785156 237.632813 189.683594L237.417969 190.03125C239.378906 191.335938 240.105469 193.140625 240.105469 195.816406 240.105469 198.519531 239.378906 200.335938 237.417969 201.625L237.632813 202C239.796875 200.886719 241.210938 198.773438 241.210938 195.816406" />
  <path d="M 838.007813 508.679688 L 838.007813 569.460938" transform="matrix(.1 0 0 -.1 0 218.2)" fill="none" stroke-width="7.97" stroke-linecap="round" stroke-linejoin="round" stroke="#000" stroke-miterlimit="10" />
  <path d="M 86.96875 177.976563 L 86.96875 177.046875 L 85.597656 177.046875 L 85.597656 171.425781 L 84.777344 171.425781 L 80.675781 177.128906 L 80.675781 177.976563 L 84.398438 177.976563 L 84.398438 180.101563 L 85.597656 180.101563 L 85.597656 177.976563 Z M 84.398438 177.046875 L 81.414063 177.046875 L 81.414063 176.992188 L 84.347656 172.890625 L 84.398438 172.890625 L 84.398438 177.046875" />
  <path d="M 1141.796875 508.679688 L 1141.796875 569.460938" transform="matrix(.1 0 0 -.1 0 218.2)" fill="none" stroke-width="7.97" stroke-linecap="round" stroke-linejoin="round" stroke="#000" stroke-miterlimit="10" />
  <path d="M 116.925781 178.183594 C 116.925781 177.105469 116.441406 176.460938 114.867188 175.507813 L 114.867188 175.464844 C 116.117188 174.78125 116.601563 174.335938 116.601563 173.355469 C 116.601563 172.292969 115.578125 171.5 114.246094 171.5 C 112.769531 171.5 111.695313 172.265625 111.695313 173.488281 C 111.695313 174.402344 111.988281 174.953125 113.359375 175.910156 L 113.359375 175.949219 C 112.109375 176.785156 111.519531 177.214844 111.519531 178.289063 C 111.519531 179.664063 112.648438 180.359375 114.207031 180.359375 C 115.808594 180.359375 116.925781 179.59375 116.925781 178.183594 Z M 115.609375 173.328125 C 115.609375 174.1875 115.339844 174.710938 114.449219 175.25 C 113.253906 174.523438 112.742188 174.039063 112.742188 173.246094 C 112.742188 172.425781 113.308594 171.941406 114.222656 171.941406 C 115.082031 171.941406 115.609375 172.441406 115.609375 173.328125 Z M 113.765625 176.164063 C 115.390625 177.214844 115.796875 177.710938 115.796875 178.574219 C 115.796875 179.488281 115.09375 179.945313 114.261719 179.945313 C 113.242188 179.945313 112.566406 179.394531 112.566406 178.183594 C 112.566406 177.253906 112.996094 176.785156 113.765625 176.164063" />
  <path d="M 1445.585938 508.679688 L 1445.585938 569.460938" transform="matrix(.1 0 0 -.1 0 218.2)" fill="none" stroke-width="7.97" stroke-linecap="round" stroke-linejoin="round" stroke="#000" stroke-miterlimit="10" />
  <path d="M143.628906 180.101563L143.628906 179.722656C142.390625 179.722656 141.894531 179.480469 141.894531 178.820313L141.894531 171.507813 141.503906 171.507813 138.894531 172.246094 138.894531 172.6875C139.3125 172.554688 139.996094 172.476563 140.265625 172.476563 140.601563 172.476563 140.710938 172.664063 140.710938 173.132813L140.710938 178.820313C140.710938 179.496094 140.242188 179.722656 138.976563 179.722656L138.976563 180.101563 143.628906 180.101563M150.839844 177.949219L150.449219 177.949219C150.140625 178.753906 149.964844 179.039063 149.253906 179.039063L147.382813 179.039063 146.441406 179.078125 146.441406 179.011719 148.21875 177.328125C149.644531 175.890625 150.410156 174.960938 150.410156 173.765625 150.410156 172.351563 149.347656 171.4375 147.828125 171.4375 146.523438 171.4375 145.609375 172.191406 145.191406 173.496094L145.515625 173.632813C146.011719 172.621094 146.601563 172.3125 147.476563 172.3125 148.515625 172.3125 149.160156 172.960938 149.160156 173.96875 149.160156 175.378906 148.484375 176.226563 147.15625 177.597656L145.109375 179.640625 145.109375 180.101563 150.410156 180.101563 150.839844 177.949219" />
  <path d="M 1749.375 508.679688 L 1749.375 569.460938" transform="matrix(.1 0 0 -.1 0 218.2)" fill="none" stroke-width="7.97" stroke-linecap="round" stroke-linejoin="round" stroke="#000" stroke-miterlimit="10" />
  <path d="M174.03125 180.199219L174.03125 179.824219C172.792969 179.824219 172.292969 179.582031 172.292969 178.921875L172.292969 171.605469 171.90625 171.605469 169.296875 172.34375 169.296875 172.789063C169.714844 172.65625 170.398438 172.574219 170.667969 172.574219 171.003906 172.574219 171.109375 172.761719 171.109375 173.234375L171.109375 178.921875C171.109375 179.59375 170.640625 179.824219 169.378906 179.824219L169.378906 180.199219 174.03125 180.199219M180.480469 171.511719C177.589844 171.632813 175.503906 173.503906 175.503906 176.742188 175.503906 178.71875 176.378906 180.359375 178.382813 180.359375 180.078125 180.359375 181.046875 179.296875 181.046875 177.46875 181.046875 175.707031 180.089844 174.644531 178.625 174.644531 177.925781 174.644531 177.429688 174.941406 176.878906 175.480469L176.78125 175.464844C177.117188 173.503906 178.625 172.183594 180.507813 171.902344zM179.878906 177.578125C179.878906 179.285156 179.339844 179.890625 178.4375 179.890625 177.265625 179.890625 176.714844 178.695313 176.714844 177.027344 176.714844 175.855469 177.441406 175.425781 178.222656 175.425781 179.339844 175.425781 179.878906 176.367188 179.878906 177.578125" />
  <path d="M 2053.125 508.679688 L 2053.125 569.460938" transform="matrix(.1 0 0 -.1 0 218.2)" fill="none" stroke-width="7.97" stroke-linecap="round" stroke-linejoin="round" stroke="#000" stroke-miterlimit="10" />
  <path d="M204.941406 177.949219L204.550781 177.949219C204.242188 178.753906 204.066406 179.039063 203.351563 179.039063L201.484375 179.039063 200.542969 179.078125 200.542969 179.011719 202.316406 177.328125C203.742188 175.890625 204.507813 174.960938 204.507813 173.765625 204.507813 172.351563 203.445313 171.4375 201.929688 171.4375 200.621094 171.4375 199.710938 172.191406 199.292969 173.496094L199.613281 173.632813C200.113281 172.621094 200.703125 172.3125 201.578125 172.3125 202.613281 172.3125 203.257813 172.960938 203.257813 173.96875 203.257813 175.378906 202.585938 176.226563 201.253906 177.597656L199.210938 179.640625 199.210938 180.101563 204.507813 180.101563 204.941406 177.949219M211.59375 175.835938C211.59375 173.066406 210.382813 171.464844 208.648438 171.464844 206.699219 171.464844 205.664063 173.242188 205.664063 175.796875 205.664063 178.175781 206.457031 180.25 208.621094 180.25 210.734375 180.25 211.59375 178.136719 211.59375 175.835938zM210.289063 175.917969C210.289063 178.5 209.683594 179.765625 208.621094 179.765625 207.546875 179.765625 206.953125 178.472656 206.953125 175.863281 206.953125 173.203125 207.546875 171.921875 208.609375 171.921875 209.710938 171.921875 210.289063 173.1875 210.289063 175.917969" />
  <path d="M 2356.914063 508.679688 L 2356.914063 569.460938" transform="matrix(.1 0 0 -.1 0 218.2)" fill="none" stroke-width="7.97" stroke-linecap="round" stroke-linejoin="round" stroke="#000" stroke-miterlimit="10" />
  <path d="M235.242188 177.949219L234.851563 177.949219C234.539063 178.753906 234.367188 179.039063 233.652344 179.039063L231.785156 179.039063 230.84375 179.078125 230.84375 179.011719 232.617188 177.328125C234.042969 175.890625 234.808594 174.960938 234.808594 173.765625 234.808594 172.351563 233.746094 171.4375 232.226563 171.4375 230.921875 171.4375 230.007813 172.191406 229.59375 173.496094L229.914063 173.632813C230.414063 172.621094 231.003906 172.3125 231.878906 172.3125 232.914063 172.3125 233.558594 172.960938 233.558594 173.96875 233.558594 175.378906 232.886719 176.226563 231.554688 177.597656L229.511719 179.640625 229.511719 180.101563 234.808594 180.101563 235.242188 177.949219M242.167969 177.976563L242.167969 177.046875 240.796875 177.046875 240.796875 171.425781 239.976563 171.425781 235.875 177.128906 235.875 177.976563 239.601563 177.976563 239.601563 180.101563 240.796875 180.101563 240.796875 177.976563zM239.601563 177.046875L236.613281 177.046875 236.613281 176.992188 239.546875 172.890625 239.601563 172.890625 239.601563 177.046875" />
  <path d="M 2660.703125 508.679688 L 2660.703125 569.460938" transform="matrix(.1 0 0 -.1 0 218.2)" fill="none" stroke-width="7.97" stroke-linecap="round" stroke-linejoin="round" stroke="#000" stroke-miterlimit="10" />
  <path d="M265.640625 178.046875L265.25 178.046875C264.941406 178.855469 264.765625 179.136719 264.054688 179.136719L262.183594 179.136719 261.242188 179.179688 261.242188 179.109375 263.015625 177.429688C264.445313 175.992188 265.210938 175.0625 265.210938 173.867188 265.210938 172.453125 264.148438 171.539063 262.628906 171.539063 261.324219 171.539063 260.410156 172.292969 259.992188 173.597656L260.3125 173.730469C260.8125 172.722656 261.402344 172.414063 262.277344 172.414063 263.3125 172.414063 263.960938 173.058594 263.960938 174.066406 263.960938 175.480469 263.285156 176.328125 261.953125 177.699219L259.910156 179.742188 259.910156 180.199219 265.210938 180.199219 265.640625 178.046875M272.125 178.183594C272.125 177.105469 271.640625 176.460938 270.066406 175.507813L270.066406 175.464844C271.320313 174.78125 271.800781 174.335938 271.800781 173.355469 271.800781 172.292969 270.78125 171.5 269.449219 171.5 267.96875 171.5 266.894531 172.265625 266.894531 173.488281 266.894531 174.402344 267.1875 174.953125 268.5625 175.910156L268.5625 175.949219C267.3125 176.785156 266.71875 177.214844 266.71875 178.289063 266.71875 179.664063 267.847656 180.359375 269.40625 180.359375 271.007813 180.359375 272.125 179.59375 272.125 178.183594zM270.808594 173.328125C270.808594 174.1875 270.539063 174.710938 269.648438 175.25 268.453125 174.523438 267.941406 174.039063 267.941406 173.246094 267.941406 172.425781 268.507813 171.941406 269.421875 171.941406 270.28125 171.941406 270.808594 172.441406 270.808594 173.328125zM268.964844 176.164063C270.59375 177.214844 270.996094 177.710938 270.996094 178.574219 270.996094 179.488281 270.296875 179.945313 269.464844 179.945313 268.441406 179.945313 267.765625 179.394531 267.765625 178.183594 267.765625 177.253906 268.199219 176.785156 268.964844 176.164063" />
  <path d="M 2964.492188 508.679688 L 2964.492188 569.460938" transform="matrix(.1 0 0 -.1 0 218.2)" fill="none" stroke-width="7.97" stroke-linecap="round" stroke-linejoin="round" stroke="#000" stroke-miterlimit="10" />
  <path d="M290.957031 173.402344C291.414063 172.6875 291.910156 172.3125 292.71875 172.3125 293.550781 172.3125 294.089844 172.769531 294.089844 173.5625 294.089844 174.652344 293.136719 175.390625 292.21875 175.390625L291.964844 175.390625 291.964844 175.90625 292.234375 175.90625C293.523438 175.90625 294.667969 176.695313 294.667969 177.894531 294.667969 179.210938 293.847656 179.601563 293.003906 179.601563 292.679688 179.601563 292.488281 179.546875 291.910156 179.253906 291.441406 179.011719 291.332031 178.945313 291.117188 178.945313 290.769531 178.945313 290.59375 179.253906 290.59375 179.535156 290.59375 179.882813 290.890625 180.273438 292.101563 180.273438 294.0625 180.273438 295.773438 179.332031 295.773438 177.492188 295.773438 176.292969 294.871094 175.582031 293.792969 175.246094L293.792969 175.203125C294.640625 174.667969 295.246094 174.167969 295.246094 173.242188 295.246094 172.21875 294.453125 171.4375 293.082031 171.4375 291.976563 171.4375 291.144531 172.058594 290.648438 173.226563L290.957031 173.402344M302.640625 177.949219L302.25 177.949219C301.941406 178.753906 301.765625 179.039063 301.054688 179.039063L299.183594 179.039063 298.242188 179.078125 298.242188 179.011719 300.015625 177.328125C301.445313 175.890625 302.210938 174.960938 302.210938 173.765625 302.210938 172.351563 301.148438 171.4375 299.628906 171.4375 298.324219 171.4375 297.410156 172.191406 296.992188 173.496094L297.3125 173.632813C297.8125 172.621094 298.402344 172.3125 299.277344 172.3125 300.3125 172.3125 300.960938 172.960938 300.960938 173.96875 300.960938 175.378906 300.285156 176.226563 298.953125 177.597656L296.910156 179.640625 296.910156 180.101563 302.210938 180.101563 302.640625 177.949219" />
  <path d="M 3268.28125 508.679688 L 3268.28125 569.460938" transform="matrix(.1 0 0 -.1 0 218.2)" fill="none" stroke-width="7.97" stroke-linecap="round" stroke-linejoin="round" stroke="#000" stroke-miterlimit="10" />
  <path d="M321.355469 173.503906C321.8125 172.789063 322.3125 172.414063 323.117188 172.414063 323.953125 172.414063 324.492188 172.871094 324.492188 173.664063 324.492188 174.753906 323.535156 175.492188 322.621094 175.492188L322.367188 175.492188 322.367188 176.003906 322.632813 176.003906C323.925781 176.003906 325.070313 176.796875 325.070313 177.992188 325.070313 179.3125 324.246094 179.703125 323.402344 179.703125 323.078125 179.703125 322.890625 179.648438 322.3125 179.351563 321.839844 179.109375 321.734375 179.042969 321.519531 179.042969 321.167969 179.042969 320.992188 179.351563 320.992188 179.632813 320.992188 179.984375 321.289063 180.375 322.5 180.375 324.464844 180.375 326.171875 179.433594 326.171875 177.589844 326.171875 176.394531 325.269531 175.679688 324.195313 175.34375L324.195313 175.304688C325.042969 174.765625 325.648438 174.269531 325.648438 173.339844 325.648438 172.320313 324.851563 171.539063 323.480469 171.539063 322.378906 171.539063 321.546875 172.15625 321.046875 173.328125L321.355469 173.503906M332.382813 171.511719C329.488281 171.632813 327.40625 173.503906 327.40625 176.742188 327.40625 178.71875 328.28125 180.359375 330.28125 180.359375 331.976563 180.359375 332.945313 179.296875 332.945313 177.46875 332.945313 175.707031 331.992188 174.644531 330.523438 174.644531 329.828125 174.644531 329.328125 174.941406 328.777344 175.480469L328.683594 175.464844C329.019531 173.503906 330.523438 172.183594 332.40625 171.902344zM331.777344 177.578125C331.777344 179.285156 331.238281 179.890625 330.339844 179.890625 329.167969 179.890625 328.617188 178.695313 328.617188 177.027344 328.617188 175.855469 329.34375 175.425781 330.121094 175.425781 331.238281 175.425781 331.777344 176.367188 331.777344 177.578125" />
  <path d="M 503.828125 842.859375 L 564.609375 842.859375" transform="matrix(.1 0 0 -.1 0 218.2)" fill="none" stroke-width="7.97" stroke-linecap="round" stroke-linejoin="round" stroke="#000" stroke-miterlimit="10" />
  <path d="M 46.070313 136.175781 L 46.070313 135.246094 L 44.695313 135.246094 L 44.695313 129.625 L 43.875 129.625 L 39.773438 135.328125 L 39.773438 136.175781 L 43.5 136.175781 L 43.5 138.300781 L 44.695313 138.300781 L 44.695313 136.175781 Z M 43.5 135.246094 L 40.515625 135.246094 L 40.515625 135.195313 L 43.445313 131.09375 L 43.5 131.09375 L 43.5 135.246094" />
  <path d="M 503.828125 1146.648438 L 564.609375 1146.648438" transform="matrix(.1 0 0 -.1 0 218.2)" fill="none" stroke-width="7.97" stroke-linecap="round" stroke-linejoin="round" stroke="#000" stroke-miterlimit="10" />
  <path d="M 45.625 105.78125 C 45.625 104.707031 45.140625 104.0625 43.566406 103.105469 L 43.566406 103.066406 C 44.820313 102.378906 45.300781 101.9375 45.300781 100.953125 C 45.300781 99.890625 44.28125 99.097656 42.949219 99.097656 C 41.46875 99.097656 40.394531 99.867188 40.394531 101.089844 C 40.394531 102.003906 40.6875 102.554688 42.0625 103.507813 L 42.0625 103.550781 C 40.8125 104.382813 40.21875 104.8125 40.21875 105.890625 C 40.21875 107.261719 41.347656 107.960938 42.90625 107.960938 C 44.507813 107.960938 45.625 107.195313 45.625 105.78125 Z M 44.308594 100.929688 C 44.308594 101.789063 44.039063 102.3125 43.148438 102.851563 C 41.953125 102.125 41.441406 101.640625 41.441406 100.847656 C 41.441406 100.027344 42.007813 99.542969 42.921875 99.542969 C 43.78125 99.542969 44.308594 100.039063 44.308594 100.929688 Z M 42.464844 103.765625 C 44.09375 104.8125 44.496094 105.3125 44.496094 106.171875 C 44.496094 107.085938 43.796875 107.542969 42.960938 107.542969 C 41.941406 107.542969 41.265625 106.992188 41.265625 105.78125 C 41.265625 104.855469 41.699219 104.382813 42.464844 103.765625" />
  <path d="M 503.828125 1450.4375 L 564.609375 1450.4375" transform="matrix(.1 0 0 -.1 0 218.2)" fill="none" stroke-width="7.97" stroke-linecap="round" stroke-linejoin="round" stroke="#000" stroke-miterlimit="10" />
  <path d="M38.628906 77.5L38.628906 77.121094C37.390625 77.121094 36.894531 76.882813 36.894531 76.222656L36.894531 68.90625 36.503906 68.90625 33.894531 69.644531 33.894531 70.089844C34.3125 69.953125 35 69.875 35.265625 69.875 35.601563 69.875 35.710938 70.0625 35.710938 70.53125L35.710938 76.222656C35.710938 76.894531 35.242188 77.121094 33.976563 77.121094L33.976563 77.5 38.628906 77.5M45.839844 75.347656L45.449219 75.347656C45.140625 76.15625 44.964844 76.4375 44.253906 76.4375L42.382813 76.4375 41.441406 76.476563 41.441406 76.410156 43.21875 74.730469C44.644531 73.289063 45.410156 72.363281 45.410156 71.164063 45.410156 69.753906 44.347656 68.839844 42.828125 68.839844 41.523438 68.839844 40.609375 69.59375 40.191406 70.898438L40.515625 71.03125C41.011719 70.023438 41.601563 69.710938 42.476563 69.710938 43.515625 69.710938 44.160156 70.359375 44.160156 71.367188 44.160156 72.78125 43.484375 73.628906 42.15625 74.996094L40.109375 77.042969 40.109375 77.5 45.410156 77.5 45.839844 75.347656" />
  <path d="M 503.828125 1754.226563 L 564.609375 1754.226563" transform="matrix(.1 0 0 -.1 0 218.2)" fill="none" stroke-width="7.97" stroke-linecap="round" stroke-linejoin="round" stroke="#000" stroke-miterlimit="10" />
  <path d="M38.628906 47L38.628906 46.621094C37.390625 46.621094 36.894531 46.382813 36.894531 45.722656L36.894531 38.40625 36.503906 38.40625 33.894531 39.144531 33.894531 39.589844C34.3125 39.453125 35 39.375 35.265625 39.375 35.601563 39.375 35.710938 39.5625 35.710938 40.03125L35.710938 45.722656C35.710938 46.394531 35.242188 46.621094 33.976563 46.621094L33.976563 47 38.628906 47M45.179688 38.3125C42.289063 38.433594 40.203125 40.304688 40.203125 43.542969 40.203125 45.519531 41.078125 47.160156 43.082031 47.160156 44.777344 47.160156 45.746094 46.097656 45.746094 44.269531 45.746094 42.507813 44.789063 41.445313 43.324219 41.445313 42.625 41.445313 42.128906 41.742188 41.578125 42.28125L41.484375 42.265625C41.820313 40.304688 43.324219 38.984375 45.207031 38.703125zM44.578125 44.378906C44.578125 46.085938 44.039063 46.691406 43.136719 46.691406 41.96875 46.691406 41.414063 45.492188 41.414063 43.828125 41.414063 42.65625 42.140625 42.226563 42.921875 42.226563 44.039063 42.226563 44.578125 43.167969 44.578125 44.378906" />
  <path d="M913.945313 539.070313L1141.796875 539.070313 1141.796875 842.859375 913.945313 842.859375zM1141.796875 539.070313L1293.671875 539.070313 1293.671875 1450.4375 1141.796875 1450.4375zM1293.671875 539.070313L1673.398438 539.070313 1673.398438 1070.671875 1293.671875 1070.671875zM1673.398438 539.070313L2053.125 539.070313 2053.125 842.859375 1673.398438 842.859375zM2053.125 539.070313L2812.617188 539.070313 2812.617188 1298.523438 2053.125 1298.523438zM2812.617188 539.070313L3192.34375 539.070313 3192.34375 615.007813 2812.617188 615.007813zM2812.617188 539.070313" transform="matrix(.1 0 0 -.1 0 218.2)" fill="#b0d5ef" stroke-width="7.97" stroke-linecap="round" stroke-linejoin="round" stroke="#55a4e0" stroke-miterlimit="10" />
</svg>