<svg xmlns="http://www.w3.org/2000/svg" width="268.35" height="268.59" viewBox="0 0 268.35 268.59"><title>Asset 3v2</title><g id="Layer_2" data-name="Layer 2"><g id="Layer_1-2" data-name="Layer 1"><line x1="6.32" y1="176.97" x2="260.32" y2="90.97" fill="#f25e95" stroke="#f25e95" stroke-miterlimit="10" stroke-width="2"/><path d="M.46,179.83A.48.48,0,0,1,.11,179l7.12-8.67a.49.49,0,0,1,.82.11l4.08,9.17a.48.48,0,0,1-.46.68Z" fill="#f25e95"/><path d="M267.89,87.11a.48.48,0,0,1,.35.79l-7.12,8.66a.49.49,0,0,1-.82-.11l-4.08-9.16a.48.48,0,0,1,.46-.68Z" fill="#f25e95"/><line x1="182.22" y1="260.81" x2="96.22" y2="6.81" fill="#f25e95" stroke="#f25e95" stroke-miterlimit="10" stroke-width="2"/><path d="M185.71,268.15a.48.48,0,0,1-.8.32L176.54,261a.48.48,0,0,1,.15-.8l9.32-3.71a.48.48,0,0,1,.66.49Z" fill="#f25e95"/><path d="M92.71.44a.48.48,0,0,1,.81-.31L101.8,7.7a.49.49,0,0,1-.16.81L92.28,12.1a.49.49,0,0,1-.66-.5Z" fill="#f25e95"/></g></g></svg>