<?xml version="1.0" encoding="UTF-8"?> <svg xmlns="http://www.w3.org/2000/svg" width="302" height="299" viewBox="0 0 302 299" fill="none"><mask id="mask0_2023:44457" style="mask-type:alpha" maskUnits="userSpaceOnUse" x="1" y="21" width="281" height="278"><rect x="1" y="21" width="281" height="278" fill="#C4C4C4"></rect></mask><g mask="url(#mask0_2023:44457)"><mask id="mask1_2023:44457" style="mask-type:alpha" maskUnits="userSpaceOnUse" x="-52" y="-31" width="500" height="494"><rect x="-52" y="-31" width="500" height="493.421" fill="white"></rect></mask><g mask="url(#mask1_2023:44457)"><rect x="-52" y="-31" width="501.645" height="493.421" fill="white"></rect><line x1="1.29975" y1="462.422" x2="1.29975" y2="-30.9992" stroke="#E0E0E0" stroke-width="0.822368"></line><line x1="15.2998" y1="462.422" x2="15.2998" y2="-30.9992" stroke="#E0E0E0" stroke-width="0.822368"></line><line x1="28.8909" y1="462.422" x2="28.8909" y2="-30.9992" stroke="#E0E0E0" stroke-width="1.64"></line><line x1="43.2998" y1="462.422" x2="43.2998" y2="-30.9992" stroke="#E0E0E0" stroke-width="0.822368"></line><line x1="57.2998" y1="462.422" x2="57.2998" y2="-30.9992" stroke="#E0E0E0" stroke-width="0.822368"></line><line x1="71.2998" y1="462.422" x2="71.2998" y2="-30.9992" stroke="#E0E0E0" stroke-width="0.822368"></line><line x1="84.8886" y1="462.422" x2="84.8886" y2="-30.9992" stroke="#E0E0E0" stroke-width="1.64474"></line><line x1="99.2998" y1="462.422" x2="99.2998" y2="-30.9992" stroke="#E0E0E0" stroke-width="0.822368"></line><line x1="113.3" y1="462.422" x2="113.3" y2="-30.9992" stroke="#E0E0E0" stroke-width="0.822368"></line><line x1="127.3" y1="462.422" x2="127.3" y2="-30.9992" stroke="#E0E0E0" stroke-width="0.822368"></line><line x1="140.889" y1="462.422" x2="140.889" y2="-30.9992" stroke="#E0E0E0" stroke-width="1.64474"></line><line x1="155.3" y1="462.422" x2="155.3" y2="-30.9992" stroke="#E0E0E0" stroke-width="0.822368"></line><line x1="169.3" y1="462.422" x2="169.3" y2="-30.9992" stroke="#E0E0E0" stroke-width="0.822368"></line><line x1="183.3" y1="462.422" x2="183.3" y2="-30.9992" stroke="#E0E0E0" stroke-width="0.822368"></line><line x1="196.889" y1="462.422" x2="196.889" y2="-30.9992" stroke="#E0E0E0" stroke-width="1.64474"></line><line x1="211.3" y1="462.422" x2="211.3" y2="-30.9992" stroke="#E0E0E0" stroke-width="0.822368"></line><line x1="225.3" y1="462.422" x2="225.3" y2="-30.9992" stroke="#E0E0E0" stroke-width="0.822368"></line><line x1="239.3" y1="462.422" x2="239.3" y2="-30.9992" stroke="#E0E0E0" stroke-width="0.822368"></line><line x1="252.889" y1="462.422" x2="252.889" y2="-30.9992" stroke="#E0E0E0" stroke-width="1.64474"></line><line x1="267.3" y1="462.422" x2="267.3" y2="-30.9992" stroke="#E0E0E0" stroke-width="0.822368"></line><line x1="281.3" y1="462.422" x2="281.3" y2="-30.9992" stroke="#E0E0E0" stroke-width="0.822368"></line><line x1="451.289" y1="298.433" x2="-61.8688" y2="298.433" stroke="#E0E0E0" stroke-width="0.822368"></line><line x1="451.289" y1="284.433" x2="-61.8688" y2="284.433" stroke="#E0E0E0" stroke-width="0.822368"></line><line x1="451.289" y1="270.844" x2="-61.8688" y2="270.844" stroke="#E0E0E0" stroke-width="1.64474"></line><line x1="451.289" y1="256.433" x2="-61.8688" y2="256.433" stroke="#E0E0E0" stroke-width="0.822368"></line><line x1="451.289" y1="242.433" x2="-61.8688" y2="242.433" stroke="#E0E0E0" stroke-width="0.822368"></line><line x1="451.289" y1="228.433" x2="-61.8688" y2="228.433" stroke="#E0E0E0" stroke-width="0.822368"></line><line x1="451.289" y1="214.844" x2="-61.8688" y2="214.844" stroke="#E0E0E0" stroke-width="1.64474"></line><line x1="451.289" y1="200.433" x2="-61.8688" y2="200.433" stroke="#E0E0E0" stroke-width="0.822368"></line><line x1="451.289" y1="186.433" x2="-61.8688" y2="186.433" stroke="#E0E0E0" stroke-width="0.822368"></line><line x1="451.289" y1="172.433" x2="-61.8688" y2="172.433" stroke="#E0E0E0" stroke-width="0.822368"></line><line x1="451.289" y1="158.844" x2="-61.8688" y2="158.844" stroke="#E0E0E0" stroke-width="1.64474"></line><line x1="451.289" y1="144.433" x2="-61.8688" y2="144.433" stroke="#E0E0E0" stroke-width="0.822368"></line><line x1="451.289" y1="130.433" x2="-61.8688" y2="130.433" stroke="#E0E0E0" stroke-width="0.822368"></line><line x1="451.289" y1="116.433" x2="-61.8688" y2="116.433" stroke="#E0E0E0" stroke-width="0.822368"></line><line x1="451.289" y1="102.844" x2="-61.8688" y2="102.844" stroke="#E0E0E0" stroke-width="1.64474"></line><line x1="451.289" y1="88.4327" x2="-61.8688" y2="88.4327" stroke="#E0E0E0" stroke-width="0.822368"></line><line x1="451.289" y1="74.4327" x2="-61.8688" y2="74.4327" stroke="#E0E0E0" stroke-width="0.822368"></line><line x1="451.289" y1="60.4327" x2="-61.8688" y2="60.4327" stroke="#E0E0E0" stroke-width="0.822368"></line><line x1="451.289" y1="46.8439" x2="-61.8688" y2="46.8439" stroke="#E0E0E0" stroke-width="1.64474"></line><line x1="451.289" y1="32.4327" x2="-61.8688" y2="32.4327" stroke="#E0E0E0" stroke-width="0.822368"></line></g><line x1="29.5" y1="11" x2="29.5" y2="317" stroke="#9E9E9E" stroke-width="3"></line><line x1="-4" y1="270.5" x2="292" y2="270.5" stroke="#9E9E9E" stroke-width="3"></line><line x1="141" y1="13" x2="141" y2="325" stroke="#FB1313" stroke-width="2"></line></g><path d="M22.6338 278.689C22.6338 279.35 22.541 279.967 22.3555 280.54C22.2448 280.892 22.0951 281.18 21.9062 281.404C21.7207 281.629 21.5091 281.808 21.2715 281.941C21.0339 282.072 20.7751 282.137 20.4951 282.137C20.1761 282.137 19.888 282.055 19.6309 281.893C19.3737 281.73 19.1458 281.497 18.9473 281.194C18.804 280.973 18.6787 280.678 18.5713 280.311C18.4313 279.812 18.3613 279.298 18.3613 278.768C18.3613 278.048 18.4622 277.387 18.6641 276.785C18.8301 276.287 19.0824 275.906 19.4209 275.643C19.7594 275.376 20.1175 275.242 20.4951 275.242C20.8792 275.242 21.2373 275.374 21.5693 275.638C21.9046 275.898 22.1504 276.25 22.3066 276.692C22.5247 277.301 22.6338 277.967 22.6338 278.689ZM21.1299 278.68C21.1299 277.521 21.1234 276.845 21.1104 276.653C21.0778 276.201 20.9997 275.895 20.876 275.735C20.7946 275.631 20.6628 275.579 20.4805 275.579C20.3405 275.579 20.2298 275.618 20.1484 275.696C20.028 275.81 19.9466 276.012 19.9043 276.302C19.862 276.588 19.8408 277.592 19.8408 279.314C19.8408 280.252 19.8734 280.88 19.9385 281.199C19.9873 281.43 20.0573 281.585 20.1484 281.663C20.2396 281.741 20.36 281.78 20.5098 281.78C20.6725 281.78 20.7946 281.728 20.876 281.624C21.0127 281.442 21.0908 281.16 21.1104 280.779L21.1299 278.68Z" fill="#757575"></path><rect x="137" y="274" width="8" height="9" fill="white"></rect><path d="M86.1406 282H82.2441V281.893C83.4388 280.47 84.1631 279.513 84.417 279.021C84.6742 278.53 84.8027 278.05 84.8027 277.581C84.8027 277.239 84.6969 276.956 84.4854 276.731C84.2738 276.504 84.015 276.39 83.709 276.39C83.2077 276.39 82.8187 276.64 82.542 277.142L82.3613 277.078C82.5371 276.453 82.804 275.991 83.1621 275.691C83.5202 275.392 83.9336 275.242 84.4023 275.242C84.7376 275.242 85.0436 275.32 85.3203 275.477C85.597 275.633 85.8135 275.848 85.9697 276.121C86.126 276.391 86.2041 276.645 86.2041 276.883C86.2041 277.316 86.0837 277.755 85.8428 278.201C85.514 278.803 84.7962 279.643 83.6895 280.721H85.1201C85.4717 280.721 85.6995 280.706 85.8037 280.677C85.9111 280.647 85.999 280.599 86.0674 280.53C86.1357 280.459 86.2253 280.311 86.3359 280.086H86.5117L86.1406 282Z" fill="#757575"></path><path d="M139.249 279.505L142.394 275.242H142.989V279.505H143.595V280.516H142.989V282H141.646V280.516H139.249V279.505ZM139.723 279.505H141.646V276.893L139.723 279.505Z" fill="#757575"></path><path d="M198.697 275.242V275.379C198.108 275.529 197.634 275.722 197.276 275.96C196.922 276.194 196.64 276.481 196.432 276.819C196.227 277.155 196.067 277.571 195.953 278.069C196.096 277.972 196.215 277.908 196.31 277.879C196.521 277.814 196.734 277.781 196.949 277.781C197.444 277.781 197.856 277.962 198.185 278.323C198.517 278.681 198.683 279.171 198.683 279.793C198.683 280.229 198.593 280.63 198.414 280.994C198.235 281.359 197.981 281.64 197.652 281.839C197.324 282.037 196.972 282.137 196.598 282.137C196.191 282.137 195.815 282.026 195.47 281.805C195.125 281.58 194.854 281.253 194.659 280.823C194.467 280.394 194.371 279.926 194.371 279.422C194.371 278.68 194.549 277.99 194.903 277.352C195.261 276.71 195.768 276.201 196.422 275.823C197.079 275.442 197.838 275.249 198.697 275.242ZM195.89 278.465C195.864 278.914 195.851 279.243 195.851 279.451C195.851 279.9 195.893 280.335 195.978 280.755C196.065 281.175 196.184 281.469 196.334 281.639C196.441 281.759 196.568 281.819 196.715 281.819C196.865 281.819 196.998 281.733 197.115 281.561C197.232 281.385 197.291 281.03 197.291 280.496C197.291 279.598 197.182 278.978 196.964 278.636C196.824 278.414 196.635 278.304 196.397 278.304C196.267 278.304 196.098 278.357 195.89 278.465Z" fill="#757575"></path><path d="M254.408 278.26C254.874 278.602 255.196 278.921 255.375 279.217C255.557 279.51 255.648 279.847 255.648 280.228C255.648 280.761 255.447 281.214 255.043 281.585C254.643 281.953 254.097 282.137 253.407 282.137C252.753 282.137 252.247 281.976 251.889 281.653C251.531 281.331 251.352 280.937 251.352 280.472C251.352 280.117 251.454 279.806 251.659 279.539C251.868 279.272 252.213 279.028 252.694 278.807C252.17 278.406 251.833 278.079 251.684 277.825C251.537 277.571 251.464 277.277 251.464 276.941C251.464 276.499 251.651 276.11 252.025 275.774C252.403 275.436 252.919 275.267 253.573 275.267C254.205 275.267 254.69 275.416 255.028 275.716C255.37 276.012 255.541 276.368 255.541 276.785C255.541 277.098 255.448 277.374 255.263 277.615C255.08 277.853 254.796 278.068 254.408 278.26ZM254.037 278.011C254.158 277.848 254.247 277.666 254.306 277.464C254.364 277.262 254.394 277.041 254.394 276.8C254.394 276.377 254.302 276.053 254.12 275.828C253.983 275.656 253.795 275.569 253.554 275.569C253.336 275.569 253.15 275.649 252.997 275.809C252.844 275.965 252.768 276.16 252.768 276.395C252.768 276.632 252.852 276.88 253.021 277.137C253.194 277.391 253.533 277.682 254.037 278.011ZM253.061 279.041C252.96 279.132 252.888 279.215 252.846 279.29C252.781 279.404 252.722 279.57 252.67 279.788C252.618 280.006 252.592 280.234 252.592 280.472C252.592 280.778 252.631 281.035 252.709 281.243C252.787 281.448 252.898 281.596 253.041 281.688C253.188 281.779 253.337 281.824 253.49 281.824C253.728 281.824 253.928 281.738 254.091 281.565C254.254 281.39 254.335 281.15 254.335 280.848C254.335 280.216 253.91 279.614 253.061 279.041Z" fill="#757575"></path><path d="M22.1406 218H18.2441V217.893C19.4388 216.47 20.1631 215.513 20.417 215.021C20.6742 214.53 20.8027 214.05 20.8027 213.581C20.8027 213.239 20.6969 212.956 20.4854 212.731C20.2738 212.504 20.015 212.39 19.709 212.39C19.2077 212.39 18.8187 212.64 18.542 213.142L18.3613 213.078C18.5371 212.453 18.804 211.991 19.1621 211.691C19.5202 211.392 19.9336 211.242 20.4023 211.242C20.7376 211.242 21.0436 211.32 21.3203 211.477C21.597 211.633 21.8135 211.848 21.9697 212.121C22.126 212.391 22.2041 212.645 22.2041 212.883C22.2041 213.316 22.0837 213.755 21.8428 214.201C21.514 214.803 20.7962 215.643 19.6895 216.721H21.1201C21.4717 216.721 21.6995 216.706 21.8037 216.677C21.9111 216.647 21.999 216.599 22.0674 216.53C22.1357 216.459 22.2253 216.311 22.3359 216.086H22.5117L22.1406 218Z" fill="#757575"></path><path d="M18.249 159.505L21.3936 155.242H21.9893V159.505H22.5947V160.516H21.9893V162H20.6465V160.516H18.249V159.505ZM18.7227 159.505H20.6465V156.893L18.7227 159.505Z" fill="#757575"></path><path d="M22.6973 99.2422V99.3789C22.1081 99.5286 21.6344 99.7223 21.2764 99.96C20.9215 100.194 20.64 100.481 20.4316 100.819C20.2266 101.155 20.0671 101.571 19.9531 102.069C20.0964 101.972 20.2152 101.908 20.3096 101.879C20.5212 101.814 20.7344 101.781 20.9492 101.781C21.444 101.781 21.8558 101.962 22.1846 102.323C22.5166 102.681 22.6826 103.171 22.6826 103.793C22.6826 104.229 22.5931 104.63 22.4141 104.994C22.235 105.359 21.9811 105.64 21.6523 105.839C21.3236 106.037 20.972 106.137 20.5977 106.137C20.1908 106.137 19.8148 106.026 19.4697 105.805C19.1247 105.58 18.8545 105.253 18.6592 104.823C18.4671 104.394 18.3711 103.926 18.3711 103.422C18.3711 102.68 18.5485 101.99 18.9033 101.352C19.2614 100.71 19.7676 100.201 20.4219 99.8232C21.0794 99.4424 21.8379 99.2487 22.6973 99.2422ZM19.8896 102.465C19.8636 102.914 19.8506 103.243 19.8506 103.451C19.8506 103.9 19.8929 104.335 19.9775 104.755C20.0654 105.175 20.1842 105.469 20.334 105.639C20.4414 105.759 20.5684 105.819 20.7148 105.819C20.8646 105.819 20.998 105.733 21.1152 105.561C21.2324 105.385 21.291 105.03 21.291 104.496C21.291 103.598 21.182 102.978 20.9639 102.636C20.8239 102.414 20.6351 102.304 20.3975 102.304C20.2673 102.304 20.098 102.357 19.8896 102.465Z" fill="#757575"></path><path d="M21.4082 46.2598C21.8737 46.6016 22.196 46.9206 22.375 47.2168C22.5573 47.5098 22.6484 47.8467 22.6484 48.2275C22.6484 48.7614 22.4466 49.2139 22.043 49.585C21.6426 49.9528 21.0973 50.1367 20.4072 50.1367C19.7529 50.1367 19.2467 49.9756 18.8887 49.6533C18.5306 49.3311 18.3516 48.9372 18.3516 48.4717C18.3516 48.1169 18.4541 47.806 18.6592 47.5391C18.8675 47.2721 19.2126 47.028 19.6943 46.8066C19.1702 46.4062 18.8333 46.0791 18.6836 45.8252C18.5371 45.5713 18.4639 45.2767 18.4639 44.9414C18.4639 44.4987 18.651 44.1097 19.0254 43.7744C19.403 43.4359 19.9189 43.2666 20.5732 43.2666C21.2048 43.2666 21.6898 43.4163 22.0283 43.7158C22.3701 44.012 22.541 44.3685 22.541 44.7852C22.541 45.0977 22.4482 45.3743 22.2627 45.6152C22.0804 45.8529 21.7956 46.0677 21.4082 46.2598ZM21.0371 46.0107C21.1576 45.848 21.2471 45.6657 21.3057 45.4639C21.3643 45.262 21.3936 45.0407 21.3936 44.7998C21.3936 44.3766 21.3024 44.0527 21.1201 43.8281C20.9834 43.6556 20.7946 43.5693 20.5537 43.5693C20.3356 43.5693 20.1501 43.6491 19.9971 43.8086C19.8441 43.9648 19.7676 44.1602 19.7676 44.3945C19.7676 44.6322 19.8522 44.8796 20.0215 45.1367C20.194 45.3906 20.5326 45.682 21.0371 46.0107ZM20.0605 47.041C19.9596 47.1322 19.888 47.2152 19.8457 47.29C19.7806 47.404 19.722 47.57 19.6699 47.7881C19.6178 48.0062 19.5918 48.234 19.5918 48.4717C19.5918 48.7777 19.6309 49.0348 19.709 49.2432C19.7871 49.4482 19.8978 49.5964 20.041 49.6875C20.1875 49.7786 20.3372 49.8242 20.4902 49.8242C20.7279 49.8242 20.9281 49.738 21.0908 49.5654C21.2536 49.3896 21.335 49.1504 21.335 48.8477C21.335 48.2161 20.9102 47.6139 20.0605 47.041Z" fill="#757575"></path><path d="M113 159L58 242H113L113 159Z" fill="#0D77F3" fill-opacity="0.3" stroke="#0D77F3" stroke-width="2" stroke-linejoin="round"></path><circle cx="113.5" cy="241.5" r="2.5" fill="#0D77F3"></circle><circle cx="112.5" cy="159.5" r="2.5" fill="#0D77F3"></circle><circle cx="58.5" cy="241.5" r="2.5" fill="#0D77F3"></circle><path d="M169 159L224 242H169L169 159Z" fill="#FF4081" fill-opacity="0.3" stroke="#FF4081" stroke-width="2" stroke-linejoin="round"></path><circle cx="169.5" cy="159.5" r="2.5" fill="#FF4081"></circle><circle cx="169.5" cy="241.5" r="2.5" fill="#FF4081"></circle><circle cx="223.5" cy="241.5" r="2.5" fill="#FF4081"></circle><path d="M148.302 106V96.13H149.8L153.3 102.584L156.786 96.13H158.256V106H156.632V99.35L153.804 104.502H152.754L149.926 99.378V106H148.302ZM160.299 97.684V95.976H162.259V97.684H160.299ZM160.411 106V99.154H162.161V106H160.411ZM164.129 106V99.154H165.837V100.358C166.173 99.546 166.892 99.098 167.993 99.014L168.525 98.972L168.637 100.456L167.629 100.554C166.481 100.666 165.907 101.254 165.907 102.318V106H164.129ZM169.761 106V99.154H171.469V100.358C171.805 99.546 172.524 99.098 173.625 99.014L174.157 98.972L174.269 100.456L173.261 100.554C172.113 100.666 171.539 101.254 171.539 102.318V106H169.761ZM178.406 106.14C177.697 106.14 177.081 105.995 176.558 105.706C176.036 105.417 175.63 105.006 175.34 104.474C175.051 103.933 174.906 103.298 174.906 102.57C174.906 101.842 175.051 101.212 175.34 100.68C175.63 100.148 176.036 99.7373 176.558 99.448C177.081 99.1587 177.697 99.014 178.406 99.014C179.116 99.014 179.732 99.1587 180.254 99.448C180.777 99.7373 181.183 100.148 181.472 100.68C181.762 101.212 181.906 101.842 181.906 102.57C181.906 103.298 181.762 103.933 181.472 104.474C181.183 105.006 180.777 105.417 180.254 105.706C179.732 105.995 179.116 106.14 178.406 106.14ZM178.406 104.81C178.929 104.81 179.349 104.623 179.666 104.25C179.984 103.867 180.142 103.307 180.142 102.57C180.142 101.823 179.984 101.268 179.666 100.904C179.349 100.531 178.929 100.344 178.406 100.344C177.884 100.344 177.464 100.531 177.146 100.904C176.829 101.268 176.67 101.823 176.67 102.57C176.67 103.307 176.829 103.867 177.146 104.25C177.464 104.623 177.884 104.81 178.406 104.81ZM183.501 106V99.154H185.209V100.358C185.545 99.546 186.263 99.098 187.365 99.014L187.897 98.972L188.009 100.456L187.001 100.554C185.853 100.666 185.279 101.254 185.279 102.318V106H183.501ZM193.225 106V96.13H195.017V104.474H199.749V106H193.225ZM200.956 97.684V95.976H202.916V97.684H200.956ZM201.068 106V99.154H202.818V106H201.068ZM204.786 106V99.154H206.494V100.218C206.728 99.826 207.04 99.5273 207.432 99.322C207.834 99.1167 208.282 99.014 208.776 99.014C210.391 99.014 211.198 99.952 211.198 101.828V106H209.448V101.912C209.448 101.38 209.346 100.993 209.14 100.75C208.944 100.507 208.636 100.386 208.216 100.386C207.703 100.386 207.292 100.549 206.984 100.876C206.686 101.193 206.536 101.618 206.536 102.15V106H204.786ZM216.5 106.14C215.725 106.14 215.058 105.995 214.498 105.706C213.938 105.417 213.504 105.006 213.196 104.474C212.897 103.942 212.748 103.312 212.748 102.584C212.748 101.875 212.892 101.254 213.182 100.722C213.48 100.19 213.886 99.7747 214.4 99.476C214.922 99.168 215.515 99.014 216.178 99.014C217.148 99.014 217.914 99.322 218.474 99.938C219.043 100.554 219.328 101.394 219.328 102.458V102.976H214.428C214.558 104.199 215.258 104.81 216.528 104.81C216.91 104.81 217.293 104.754 217.676 104.642C218.058 104.521 218.408 104.334 218.726 104.082L219.216 105.258C218.889 105.529 218.478 105.743 217.984 105.902C217.489 106.061 216.994 106.14 216.5 106.14ZM216.248 100.204C215.734 100.204 215.319 100.363 215.002 100.68C214.684 100.997 214.493 101.427 214.428 101.968H217.872C217.834 101.399 217.676 100.965 217.396 100.666C217.125 100.358 216.742 100.204 216.248 100.204Z" fill="black"></path><g clip-path="url(#clip0_2023:44457)"><path d="M84.2044 152.805C84.2044 152.737 83.9261 152.693 83.3696 152.673C83.1352 152.673 82.9839 152.669 82.9155 152.659C82.8472 152.649 82.813 152.6 82.813 152.512C82.813 152.503 82.8228 152.449 82.8423 152.351C82.9009 152.156 82.9448 152.049 82.9741 152.029C83.0034 152.01 83.9505 152 85.8154 152C87.6705 152.01 88.6615 152.024 88.7884 152.044C89.4133 152.151 89.9357 152.39 90.3555 152.761C90.7753 153.132 90.9901 153.625 90.9999 154.24C90.9999 154.992 90.6777 155.68 90.0333 156.305C89.3596 156.968 88.4906 157.388 87.4264 157.564C87.358 157.573 86.8454 157.583 85.8886 157.593H84.4973L84.0579 159.335C83.765 160.468 83.6185 161.068 83.6185 161.136C83.6185 161.175 83.6234 161.2 83.6332 161.209C83.6429 161.219 83.6771 161.239 83.7357 161.268C83.7943 161.297 83.8773 161.307 83.9847 161.297C84.0921 161.287 84.2532 161.297 84.468 161.327H84.922C84.9806 161.414 85.0099 161.468 85.0099 161.488C85.0099 161.644 84.9757 161.79 84.9073 161.927C84.8585 161.976 84.7804 162 84.673 162C84.6437 162 84.4631 161.995 84.1311 161.985C83.7992 161.976 83.311 161.971 82.6666 161.971C82.0612 161.971 81.5974 161.971 81.2752 161.971C80.953 161.971 80.7773 161.976 80.748 161.985C80.5722 161.985 80.4844 161.937 80.4844 161.839C80.4844 161.819 80.499 161.751 80.5283 161.634C80.5674 161.478 80.6064 161.39 80.6455 161.37C80.6845 161.351 80.7968 161.336 80.9823 161.327C81.2459 161.327 81.5389 161.312 81.8611 161.283C81.9978 161.253 82.0905 161.195 82.1393 161.107C82.1686 161.068 82.5201 159.711 83.1938 157.037C83.8675 154.362 84.2044 152.952 84.2044 152.805ZM89.4475 153.889C89.4475 153.762 89.4377 153.659 89.4182 153.581C89.3987 153.503 89.3547 153.396 89.2864 153.259C89.218 153.122 89.096 153.015 88.9202 152.937C88.7445 152.859 88.5053 152.781 88.2026 152.703C88.1343 152.693 87.7437 152.683 87.031 152.673C86.865 152.673 86.6941 152.673 86.5184 152.673C86.3426 152.673 86.201 152.678 86.0936 152.688C85.9862 152.698 85.9277 152.698 85.9179 152.688C85.791 152.698 85.7031 152.742 85.6543 152.82C85.6347 152.878 85.542 153.254 85.376 153.947C85.21 154.64 85.0392 155.314 84.8634 155.968C84.6877 156.622 84.5998 156.954 84.5998 156.963C84.5998 156.983 84.9952 156.993 85.7861 156.993H85.9618H86.2987C87.3922 156.993 88.1733 156.749 88.642 156.261C88.9056 155.997 89.1057 155.612 89.2424 155.104C89.3791 154.596 89.4475 154.191 89.4475 153.889Z" fill="black"></path></g><g clip-path="url(#clip1_2023:44457)"><path d="M196.548 162.477C196.548 162.183 196.553 161.96 196.562 161.808C196.572 161.657 196.581 161.572 196.59 161.555V161.501L196.381 161.555C195.955 161.653 195.566 161.702 195.213 161.702C194.333 161.702 193.568 161.448 192.919 160.94C192.27 160.432 191.867 159.693 191.709 158.722C191.7 158.65 191.695 158.459 191.695 158.147C191.695 157.238 191.918 156.374 192.363 155.555C192.808 154.735 193.406 154.009 194.157 153.376C195.306 152.459 196.46 152 197.619 152C197.971 152 198.194 152.004 198.287 152.013C199.186 152.138 199.909 152.521 200.456 153.163C201.003 153.804 201.281 154.615 201.29 155.595C201.29 157.198 200.604 158.659 199.232 159.978C198.648 160.512 198.041 160.918 197.41 161.194L197.174 161.301V161.367C197.174 161.376 197.197 161.497 197.244 161.728C197.29 161.96 197.387 162.147 197.536 162.29C197.684 162.432 197.897 162.503 198.175 162.503C198.5 162.503 198.81 162.405 199.107 162.209C199.404 162.013 199.598 161.759 199.691 161.448C199.747 161.323 199.807 161.261 199.872 161.261C199.955 161.261 200.006 161.301 200.025 161.381C200.025 161.452 199.978 161.612 199.886 161.862C199.793 162.111 199.663 162.405 199.496 162.744C199.329 163.082 199.079 163.372 198.745 163.612C198.412 163.853 198.059 163.982 197.689 164C196.928 164 196.548 163.523 196.548 162.57V162.477ZM199.844 155.154C199.844 154.664 199.774 154.236 199.635 153.871C199.496 153.506 199.306 153.234 199.065 153.056C198.824 152.878 198.592 152.744 198.37 152.655C198.147 152.566 197.902 152.521 197.633 152.521C197.188 152.521 196.734 152.633 196.27 152.855C195.325 153.292 194.564 154.076 193.99 155.207C193.415 156.339 193.128 157.443 193.128 158.521C193.128 159.465 193.378 160.165 193.878 160.619C194.101 160.806 194.235 160.9 194.282 160.9V160.793C194.282 160.437 194.435 160.107 194.741 159.804C195.047 159.501 195.408 159.345 195.825 159.336C196.057 159.336 196.256 159.385 196.423 159.483C196.59 159.581 196.715 159.715 196.799 159.884C196.882 160.053 196.938 160.196 196.966 160.312C196.993 160.428 197.021 160.548 197.049 160.673L197.23 160.552C197.823 160.16 198.328 159.621 198.745 158.935C199.163 158.249 199.45 157.586 199.608 156.944C199.765 156.303 199.844 155.706 199.844 155.154ZM195.366 161.167C195.811 161.167 196.229 161.073 196.618 160.886L196.604 160.753C196.567 160.263 196.395 159.969 196.089 159.871C195.978 159.853 195.89 159.844 195.825 159.844C195.797 159.844 195.77 159.844 195.742 159.844C195.714 159.844 195.695 159.84 195.686 159.831C195.501 159.831 195.311 159.92 195.116 160.098C194.921 160.276 194.819 160.481 194.81 160.713C194.81 161.016 194.996 161.167 195.366 161.167Z" fill="black"></path></g><path d="M289.272 269.717C289.386 269.037 289.826 268.252 290.593 267.362C291.36 266.472 292.307 266.018 293.432 266.002C294.003 266.002 294.526 266.148 294.999 266.439C295.472 266.731 295.823 267.095 296.051 267.532C296.737 266.512 297.561 266.002 298.523 266.002C299.127 266.002 299.649 266.18 300.09 266.536C300.53 266.892 300.759 267.37 300.775 267.969C300.775 268.438 300.661 268.818 300.432 269.11C300.204 269.401 299.984 269.579 299.772 269.644C299.559 269.709 299.372 269.741 299.209 269.741C298.899 269.741 298.646 269.652 298.45 269.474C298.254 269.296 298.156 269.061 298.156 268.77C298.156 268.025 298.564 267.516 299.38 267.24C299.2 267.03 298.874 266.925 298.401 266.925C298.189 266.925 298.034 266.941 297.936 266.973C297.316 267.232 296.859 267.766 296.565 268.576C295.586 272.153 295.097 274.24 295.097 274.839C295.097 275.292 295.227 275.616 295.488 275.81C295.749 276.005 296.035 276.102 296.345 276.102C296.949 276.102 297.544 275.835 298.132 275.301C298.719 274.766 299.119 274.111 299.331 273.334C299.38 273.172 299.429 273.083 299.478 273.067C299.527 273.051 299.657 273.035 299.869 273.018H299.967C300.212 273.018 300.334 273.083 300.334 273.213C300.334 273.229 300.318 273.318 300.286 273.48C300.024 274.402 299.519 275.22 298.768 275.932C298.017 276.644 297.145 277 296.149 277C295.007 277 294.142 276.49 293.555 275.471C292.886 276.474 292.119 276.976 291.254 276.976H291.107C290.308 276.976 289.737 276.765 289.394 276.345C289.051 275.924 288.872 275.479 288.855 275.009C288.855 274.491 289.01 274.07 289.321 273.747C289.631 273.423 289.998 273.261 290.422 273.261C291.124 273.261 291.474 273.601 291.474 274.281C291.474 274.605 291.376 274.888 291.181 275.131C290.985 275.373 290.797 275.535 290.618 275.616C290.438 275.697 290.332 275.738 290.3 275.738L290.226 275.762C290.226 275.778 290.275 275.81 290.373 275.859C290.471 275.908 290.601 275.964 290.765 276.029C290.928 276.094 291.083 276.118 291.23 276.102C291.817 276.102 292.323 275.738 292.747 275.009C292.894 274.75 293.082 274.2 293.31 273.358C293.538 272.517 293.767 271.643 293.995 270.736C294.224 269.83 294.354 269.296 294.387 269.134C294.469 268.697 294.509 268.381 294.509 268.187C294.509 267.734 294.387 267.41 294.142 267.216C293.897 267.022 293.62 266.925 293.31 266.925C292.657 266.925 292.045 267.184 291.474 267.702C290.903 268.22 290.503 268.883 290.275 269.692C290.242 269.838 290.202 269.919 290.153 269.935C290.104 269.951 289.973 269.968 289.761 269.984H289.418C289.321 269.887 289.272 269.798 289.272 269.717Z" fill="black"></path><g clip-path="url(#clip2_2023:44457)"><path d="M23.4297 3.35394C23.4297 3.15198 23.5317 2.80577 23.7357 2.3153C23.9398 1.82483 24.2662 1.31273 24.7151 0.77898C25.164 0.245234 25.6673 -0.0144253 26.225 0C26.7827 0 27.2315 0.165895 27.5716 0.497682C27.9117 0.82947 28.0885 1.29109 28.1021 1.88253C28.0749 2.15662 28.0545 2.30809 28.0409 2.33694C28.0409 2.38022 27.9321 2.712 27.7144 3.3323C27.4968 3.9526 27.2724 4.65224 27.0411 5.43122C26.8099 6.2102 26.7011 6.8305 26.7147 7.29212C26.7147 7.91242 26.8099 8.34518 27.0003 8.59042C27.1907 8.83565 27.4764 8.96548 27.8573 8.97991C28.1701 8.97991 28.4626 8.90057 28.7346 8.74189C29.0067 8.5832 29.2175 8.41731 29.3671 8.2442C29.5167 8.0711 29.7004 7.83308 29.918 7.53014C29.918 7.51571 29.952 7.37146 30.02 7.09737C30.088 6.82329 30.1833 6.39773 30.3057 5.82071C30.4281 5.24369 30.5573 4.70994 30.6933 4.21947C31.2102 2.05564 31.4959 0.923236 31.5503 0.822257C31.7271 0.432767 32.0196 0.238022 32.4276 0.238022C32.6045 0.238022 32.7473 0.288511 32.8561 0.38949C32.9649 0.490469 33.0397 0.577023 33.0806 0.64915C33.1214 0.721278 33.135 0.786193 33.1214 0.843895C33.1214 1.03143 32.7881 2.54611 32.1216 5.38794C31.4551 8.22978 31.0742 9.78774 30.979 10.0618C30.5981 11.2591 29.9384 12.2112 28.9998 12.9181C28.0613 13.6249 27.1227 13.9856 26.1842 14C25.5721 14 25.0348 13.8413 24.5723 13.524C24.1098 13.2066 23.8786 12.7306 23.8786 12.0958C23.8786 11.7785 23.9262 11.5116 24.0214 11.2952C24.1166 11.0788 24.2458 10.9201 24.4091 10.8192C24.5723 10.7182 24.7083 10.6461 24.8171 10.6028C24.9259 10.5595 25.0416 10.5379 25.164 10.5379C25.7625 10.5379 26.0617 10.8408 26.0617 11.4467C26.0617 11.7352 25.9801 11.9876 25.8169 12.204C25.6537 12.4204 25.4972 12.5647 25.3476 12.6368C25.198 12.7089 25.1096 12.745 25.0824 12.745L25.0212 12.7666C25.0484 12.8387 25.1776 12.9253 25.4088 13.0263C25.6401 13.1273 25.8713 13.1777 26.1025 13.1777H26.2658C26.497 13.1777 26.6738 13.1633 26.7963 13.1345C27.2451 13.0046 27.66 12.7306 28.0409 12.3122C28.4218 11.8939 28.7142 11.4467 28.9182 10.9706C29.1223 10.4946 29.2787 10.0907 29.3875 9.75889C29.4963 9.4271 29.5507 9.21072 29.5507 9.10974L29.4283 9.19629C29.3467 9.25399 29.2175 9.33333 29.0407 9.43431C28.8638 9.53529 28.687 9.62184 28.5102 9.69397C28.2381 9.7661 27.9729 9.80216 27.7144 9.80216C27.0887 9.80216 26.5378 9.64348 26.0617 9.32612C25.5857 9.00876 25.2728 8.49665 25.1232 7.7898C25.1096 7.68882 25.1028 7.46522 25.1028 7.11901C25.1028 6.29675 25.3408 5.22205 25.8169 3.8949C26.293 2.56775 26.531 1.72385 26.531 1.36322C26.531 1.34879 26.531 1.33436 26.531 1.31994C26.531 1.19011 26.531 1.10356 26.531 1.06028C26.531 1.017 26.5038 0.966513 26.4494 0.908811C26.395 0.851109 26.3202 0.822257 26.225 0.822257H26.1434C25.8305 0.822257 25.5449 0.9593 25.2864 1.23339C25.028 1.50747 24.8239 1.80319 24.6743 2.12056C24.5247 2.43792 24.4091 2.74086 24.3274 3.02937C24.2458 3.31788 24.1914 3.47656 24.1642 3.50541C24.137 3.53426 24.0282 3.54869 23.8378 3.54869H23.5521C23.4705 3.46213 23.4297 3.39722 23.4297 3.35394Z" fill="black"></path></g><rect x="1" y="20" width="281" height="278" stroke="#FF4081" stroke-width="2"></rect><defs><clipPath id="clip0_2023:44457"><rect width="11" height="10" fill="white" transform="translate(80 152)"></rect></clipPath><clipPath id="clip1_2023:44457"><rect width="11" height="12" fill="white" transform="translate(191 152)"></rect></clipPath><clipPath id="clip2_2023:44457"><rect width="10" height="14" fill="white" transform="translate(23)"></rect></clipPath></defs></svg> 