<?xml version="1.0" encoding="UTF-8"?> <svg xmlns="http://www.w3.org/2000/svg" width="282" height="282" viewBox="0 0 282 282" fill="none"><mask id="mask0_2023:49404" style="mask-type:alpha" maskUnits="userSpaceOnUse" x="0" y="0" width="281" height="282"><rect width="281" height="282" fill="#C4C4C4"></rect></mask><g mask="url(#mask0_2023:49404)"><mask id="mask1_2023:49404" style="mask-type:alpha" maskUnits="userSpaceOnUse" x="-2" y="-193" width="500" height="494"><rect x="-2" y="-193" width="500" height="493.421" fill="white"></rect></mask><g mask="url(#mask1_2023:49404)"><rect x="-2" y="-193" width="501.645" height="493.421" fill="white"></rect><line x1="0.920847" y1="307.418" x2="0.920847" y2="-186.003" stroke="#E0E0E0" stroke-width="0.822368"></line><line x1="35.9208" y1="307.418" x2="35.9208" y2="-186.003" stroke="#E0E0E0" stroke-width="0.822368"></line><line x1="70.922" y1="307.418" x2="70.922" y2="-186.003" stroke="#E0E0E0" stroke-width="0.82"></line><line x1="105.921" y1="307.418" x2="105.921" y2="-186.003" stroke="#E0E0E0" stroke-width="0.822368"></line><line x1="140.921" y1="307.418" x2="140.921" y2="-186.003" stroke="#E0E0E0" stroke-width="0.822368"></line><line x1="175.921" y1="307.418" x2="175.921" y2="-186.003" stroke="#E0E0E0" stroke-width="0.822368"></line><line x1="210.922" y1="307.418" x2="210.922" y2="-186.003" stroke="#E0E0E0" stroke-width="0.82"></line><line x1="245.921" y1="307.418" x2="245.921" y2="-186.003" stroke="#E0E0E0" stroke-width="0.822368"></line><line x1="280.921" y1="307.418" x2="280.921" y2="-186.003" stroke="#E0E0E0" stroke-width="0.822368"></line><line x1="501.289" y1="280.797" x2="-11.8688" y2="280.797" stroke="#E0E0E0" stroke-width="0.82"></line><line x1="501.289" y1="245.798" x2="-11.8688" y2="245.798" stroke="#E0E0E0" stroke-width="0.822368"></line><line x1="501.289" y1="210.798" x2="-11.8688" y2="210.798" stroke="#E0E0E0" stroke-width="0.822368"></line><line x1="501.289" y1="175.798" x2="-11.8688" y2="175.798" stroke="#E0E0E0" stroke-width="0.822368"></line><line x1="501.289" y1="140.797" x2="-11.8688" y2="140.797" stroke="#E0E0E0" stroke-width="0.82"></line><line x1="501.289" y1="105.798" x2="-11.8688" y2="105.798" stroke="#E0E0E0" stroke-width="0.822368"></line><line x1="501.289" y1="70.7979" x2="-11.8688" y2="70.7979" stroke="#E0E0E0" stroke-width="0.822368"></line><line x1="501.289" y1="35.7979" x2="-11.8688" y2="35.7979" stroke="#E0E0E0" stroke-width="0.822368"></line><line x1="501.289" y1="0.796719" x2="-11.8688" y2="0.796719" stroke="#E0E0E0" stroke-width="0.82"></line></g></g><line x1="103" y1="179.01" x2="109.01" y2="172.999" stroke="black" stroke-width="1.5" stroke-linecap="round"></line><line x1="0.75" y1="-0.75" x2="9.25" y2="-0.75" transform="matrix(-0.707107 -0.707107 -0.707107 0.707107 109.07 180.07)" stroke="black" stroke-width="1.5" stroke-linecap="round"></line><path d="M124.67 166.708C124.67 167.763 124.363 168.782 123.748 169.764C123.132 170.747 122.34 171.531 121.369 172.119C120.398 172.706 119.403 173 118.385 173C117.452 173 116.655 172.738 115.991 172.215C115.328 171.692 114.91 170.93 114.737 169.93C114.727 169.856 114.723 169.659 114.723 169.338C114.723 168.401 114.953 167.511 115.415 166.667C115.876 165.822 116.496 165.074 117.274 164.422C118.466 163.477 119.663 163.004 120.864 163.004C121.229 163.004 121.46 163.009 121.556 163.018C122.488 163.147 123.238 163.541 123.805 164.202C124.372 164.863 124.661 165.698 124.67 166.708ZM123.185 166.143C123.185 165.326 122.964 164.689 122.522 164.23C122.08 163.771 121.527 163.541 120.864 163.541C120.095 163.541 119.355 163.817 118.644 164.367C117.875 164.946 117.289 165.758 116.885 166.804C116.482 167.851 116.275 168.824 116.265 169.723C116.265 170.549 116.472 171.206 116.885 171.692C117.298 172.178 117.846 172.426 118.529 172.436C119.394 172.436 120.215 172.073 120.994 171.348C121.772 170.623 122.364 169.636 122.767 168.388C123.046 167.516 123.185 166.768 123.185 166.143Z" fill="black"></path><path d="M71 36L105.5 70.8746L71 175L36.5 70.8746L71 36Z" fill="#0D77F3" fill-opacity="0.3" stroke="#0D77F3" stroke-width="2" stroke-linejoin="round"></path><path d="M245.5 140.5L210.625 106L106.5 140.5L210.625 175L245.5 140.5Z" fill="#FF4081" fill-opacity="0.3" stroke="#FF4081" stroke-width="2" stroke-linejoin="round"></path><rect x="1" y="1" width="280" height="280" stroke="#FF4081" stroke-width="2"></rect></svg> 