<?xml version="1.0" encoding="UTF-8"?> <svg xmlns="http://www.w3.org/2000/svg" width="386" height="321" viewBox="0 0 386 321" fill="none"><path d="M29.3569 70.2959L90 26.2361L150.643 70.2959L127.479 141.586H52.5205L29.3569 70.2959Z" stroke="#FF4081" stroke-width="2"></path><path d="M28.1621 105.557L56.0931 35.9957L130.881 41.0643L149.171 113.758L85.6871 153.616L28.1621 105.557Z" fill="#FF4081" fill-opacity="0.3" stroke="#FF4081" stroke-width="2"></path><circle cx="126.5" cy="45.5" r="2.5" fill="#FB1313"></circle><path fill-rule="evenodd" clip-rule="evenodd" d="M105.062 69.624C104.315 70.5529 103.687 71.3521 102.998 72.1056C102.44 72.7168 101.958 73.3976 101.454 74.0574C100.999 74.6534 100.563 75.2637 100.115 75.865C99.9986 76.0216 99.748 75.982 99.6237 75.7988C99.5214 75.6483 99.4847 75.4873 99.5461 75.3282C99.594 75.2045 99.6668 75.0887 99.7436 74.9801C100.409 74.0389 101.085 73.1073 101.811 72.2105C102.908 70.8577 104.06 69.5521 105.155 68.1981C106.234 66.8647 107.328 65.5439 108.412 64.2152C108.451 64.1676 108.553 64.1103 108.468 64.0418C108.437 64.0161 108.319 64.0712 108.257 64.1128C107.002 64.9543 105.63 65.6013 104.3 66.3173C104.181 66.3813 104.06 66.443 103.938 66.4995C103.789 66.5678 103.637 66.5438 103.554 66.4464C103.389 66.2513 103.335 65.964 103.453 65.8346C103.524 65.7563 103.607 65.6832 103.698 65.6303C103.955 65.4817 104.213 65.3344 104.48 65.2051C106.41 64.2711 108.198 63.125 109.911 61.8652C110.257 61.6105 110.614 61.3698 110.969 61.1268C111.057 61.0668 111.153 61.0173 111.251 60.973C111.393 60.909 111.594 61.0096 111.664 61.1685C111.733 61.3271 111.77 61.4887 111.718 61.6506C111.66 61.8301 111.595 62.0076 111.525 62.1821C111.203 62.9808 110.879 63.7786 110.555 64.5765C109.864 66.2773 109.327 68.0299 108.998 69.8535C108.979 69.96 108.964 70.0699 108.926 70.1695C108.9 70.2395 108.845 70.3021 108.79 70.3541C108.742 70.3993 108.562 70.3195 108.495 70.2388C108.38 70.1026 108.31 69.9494 108.329 69.7793C108.356 69.5362 108.394 69.294 108.44 69.0544C108.727 67.5583 109.172 66.1144 109.69 64.6951C109.746 64.5435 109.806 64.3936 109.853 64.2393C109.867 64.1944 109.857 64.1312 109.835 64.0863C109.808 64.0329 109.757 64.0442 109.708 64.097C109.454 64.3729 109.185 64.6365 108.945 64.9246C107.661 66.4705 106.384 68.0224 105.105 69.5722L105.062 69.624Z" fill="#FB1313"></path><line x1="86.998" y1="92.0097" x2="93.0085" y2="85.9992" stroke="black" stroke-width="1.5" stroke-linecap="round"></line><line x1="0.75" y1="-0.75" x2="9.25" y2="-0.75" transform="matrix(-0.707107 -0.707107 -0.707107 0.707107 93.0703 93.0703)" stroke="black" stroke-width="1.5" stroke-linecap="round"></line><path d="M224.97 69.9091L285.613 25.8493L346.256 69.9091L323.093 141.199H248.134L224.97 69.9091Z" fill="#FF4081" fill-opacity="0.3" stroke="#FF4081" stroke-width="2"></path><circle cx="338.5" cy="72.5" r="2.5" fill="#FB1313"></circle><circle cx="318.5" cy="134.5" r="2.5" fill="#FB1313"></circle><circle cx="253.5" cy="134.5" r="2.5" fill="#FB1313"></circle><path fill-rule="evenodd" clip-rule="evenodd" d="M270.716 110.661C271.494 109.757 272.166 108.994 272.782 108.181C273.281 107.52 273.863 106.922 274.42 106.307C274.924 105.752 275.445 105.212 275.955 104.662C276.087 104.519 276.003 104.28 275.8 104.191C275.634 104.118 275.469 104.111 275.323 104.2C275.21 104.27 275.11 104.362 275.017 104.458C274.212 105.283 273.419 106.117 272.669 106.994C271.538 108.318 270.463 109.688 269.331 111.011C268.216 112.314 267.116 113.63 266.006 114.938C265.966 114.984 265.928 115.095 265.846 115.024C265.815 114.998 265.848 114.872 265.877 114.803C266.477 113.417 266.864 111.95 267.326 110.512C267.367 110.383 267.406 110.254 267.439 110.123C267.48 109.964 267.428 109.819 267.318 109.755C267.096 109.628 266.803 109.628 266.697 109.767C266.633 109.851 266.577 109.945 266.541 110.045C266.442 110.324 266.344 110.605 266.265 110.891C265.697 112.958 264.895 114.925 263.967 116.838C263.78 117.225 263.608 117.62 263.434 118.013C263.391 118.11 263.359 118.214 263.334 118.319C263.296 118.47 263.432 118.649 263.601 118.689C263.769 118.728 263.935 118.735 264.085 118.655C264.251 118.565 264.414 118.469 264.572 118.368C265.299 117.907 266.025 117.443 266.751 116.979C268.298 115.991 269.924 115.145 271.657 114.49C271.758 114.451 271.864 114.417 271.955 114.362C272.019 114.323 272.07 114.258 272.111 114.193C272.147 114.138 272.036 113.976 271.944 113.924C271.79 113.837 271.626 113.795 271.462 113.845C271.228 113.916 270.997 113.997 270.77 114.086C269.351 114.64 268.012 115.34 266.71 116.107C266.571 116.189 266.435 116.276 266.292 116.351C266.25 116.373 266.186 116.374 266.138 116.36C266.081 116.344 266.082 116.291 266.125 116.233C266.35 115.933 266.561 115.621 266.801 115.333C268.087 113.79 269.382 112.252 270.673 110.712L270.716 110.661Z" fill="#FB1313"></path><line x1="282.611" y1="91.6229" x2="288.622" y2="85.6125" stroke="black" stroke-width="1.5" stroke-linecap="round"></line><line x1="0.75" y1="-0.75" x2="9.25" y2="-0.75" transform="matrix(-0.707107 -0.707107 -0.707107 0.707107 288.684 92.6836)" stroke="black" stroke-width="1.5" stroke-linecap="round"></line><path d="M125.97 210.909L186.613 166.849L247.256 210.909L224.093 282.199H149.134L125.97 210.909Z" stroke="#FF4081" stroke-width="2"></path><path d="M124.775 246.17L152.706 176.609L227.494 181.678L245.784 254.371L182.3 294.229L124.775 246.17Z" fill="#FF4081" fill-opacity="0.3" stroke="#FF4081" stroke-width="2"></path><circle cx="156.5" cy="182.5" r="2.5" fill="#FB1313"></circle><circle cx="132.5" cy="212.5" r="2.5" fill="#FB1313"></circle><circle cx="152.5" cy="276.5" r="2.5" fill="#FB1313"></circle><circle cx="220.5" cy="276.5" r="2.5" fill="#FB1313"></circle><circle cx="241.5" cy="212.5" r="2.5" fill="#FB1313"></circle><path fill-rule="evenodd" clip-rule="evenodd" d="M172.43 207.624C173.177 208.553 173.805 209.352 174.494 210.106C175.052 210.717 175.535 211.398 176.038 212.057C176.493 212.653 176.929 213.264 177.377 213.865C177.494 214.022 177.744 213.982 177.869 213.799C177.971 213.648 178.008 213.487 177.946 213.328C177.898 213.204 177.825 213.089 177.749 212.98C177.084 212.039 176.407 211.107 175.681 210.211C174.585 208.858 173.432 207.552 172.337 206.198C171.259 204.865 170.165 203.544 169.08 202.215C169.041 202.168 168.94 202.11 169.024 202.042C169.056 202.016 169.174 202.071 169.236 202.113C170.49 202.954 171.862 203.601 173.193 204.317C173.311 204.381 173.432 204.443 173.555 204.499C173.703 204.568 173.855 204.544 173.938 204.446C174.104 204.251 174.157 203.964 174.039 203.835C173.969 203.756 173.886 203.683 173.794 203.63C173.538 203.482 173.279 203.334 173.012 203.205C171.082 202.271 169.295 201.125 167.581 199.865C167.235 199.61 166.878 199.37 166.523 199.127C166.435 199.067 166.339 199.017 166.241 198.973C166.099 198.909 165.898 199.01 165.829 199.168C165.759 199.327 165.722 199.489 165.774 199.651C165.832 199.83 165.897 200.008 165.967 200.182C166.289 200.981 166.613 201.779 166.937 202.576C167.628 204.277 168.165 206.03 168.494 207.853C168.513 207.96 168.528 208.07 168.566 208.169C168.592 208.239 168.647 208.302 168.703 208.354C168.751 208.399 168.93 208.32 168.998 208.239C169.112 208.103 169.182 207.949 169.163 207.779C169.136 207.536 169.098 207.294 169.052 207.054C168.765 205.558 168.321 204.114 167.802 202.695C167.747 202.543 167.686 202.394 167.639 202.239C167.625 202.194 167.635 202.131 167.657 202.086C167.684 202.033 167.735 202.044 167.784 202.097C168.038 202.373 168.308 202.636 168.547 202.925C169.831 204.47 171.108 206.022 172.387 207.572L172.43 207.624Z" fill="#FB1313"></path><line x1="183.611" y1="232.623" x2="189.622" y2="226.613" stroke="black" stroke-width="1.5" stroke-linecap="round"></line><line x1="0.75" y1="-0.75" x2="9.25" y2="-0.75" transform="matrix(-0.707107 -0.707107 -0.707107 0.707107 189.684 233.684)" stroke="black" stroke-width="1.5" stroke-linecap="round"></line><path d="M192 47.5L194.802 39.3057L186.305 40.9759L192 47.5ZM181.197 31.3321L180.91 32.025L181.197 31.3321ZM174.5 29.25C174.086 29.25 173.75 29.5858 173.75 30C173.75 30.4142 174.086 30.75 174.5 30.75V29.25ZM191.392 40.593C191.382 40.5673 191.371 40.5416 191.361 40.516L189.975 41.0901C189.985 41.1136 189.994 41.1371 190.004 41.1607L191.392 40.593ZM191.361 40.516C190.444 38.3018 189.099 36.29 187.405 34.5953L186.344 35.656C187.899 37.2113 189.133 39.0578 189.975 41.0901L191.361 40.516ZM187.405 34.5953C185.71 32.9006 183.698 31.5563 181.484 30.6392L180.91 32.025C182.942 32.8668 184.789 34.1006 186.344 35.656L187.405 34.5953ZM181.484 30.6392C179.27 29.7221 176.897 29.25 174.5 29.25V30.75C176.7 30.75 178.878 31.1833 180.91 32.025L181.484 30.6392Z" fill="black"></path><path d="M359.569 61.9655L365.85 67.9279L367.873 59.5072L359.569 61.9655ZM381.979 54.8744L381.331 54.4965L381.979 54.8744ZM384.35 46.7074L383.601 46.6795L384.35 46.7074ZM382.591 38.3869L381.917 38.7156L382.591 38.3869ZM377.118 31.8779L377.558 31.2702L377.118 31.8779ZM369.223 28.7174L369.324 27.9743L369.223 28.7174ZM360.509 28.9489C360.121 29.0931 359.923 29.5248 360.067 29.9131C360.211 30.3014 360.643 30.4993 361.031 30.3551L360.509 28.9489ZM366.101 64.2916C366.724 64.3176 367.35 64.3117 367.975 64.2735L367.884 62.7763C367.31 62.8114 366.735 62.8168 366.164 62.7929L366.101 64.2916ZM367.975 64.2735C370.971 64.0904 373.875 63.1714 376.431 61.5979L375.644 60.3206C373.299 61.7648 370.633 62.6083 367.884 62.7763L367.975 64.2735ZM376.431 61.5979C378.986 60.0243 381.114 57.8447 382.627 55.2523L381.331 54.4965C379.943 56.8759 377.99 58.8763 375.644 60.3206L376.431 61.5979ZM382.627 55.2523C384.139 52.6598 384.988 49.7344 385.1 46.7352L383.601 46.6795C383.498 49.4322 382.719 52.1171 381.331 54.4965L382.627 55.2523ZM385.1 46.7352C385.211 43.7361 384.581 40.7557 383.266 38.0581L381.917 38.7156C383.125 41.1915 383.703 43.9269 383.601 46.6795L385.1 46.7352ZM383.266 38.0581C381.95 35.3606 379.99 33.0291 377.558 31.2702L376.679 32.4856C378.911 34.0999 380.71 36.2398 381.917 38.7156L383.266 38.0581ZM377.558 31.2702C375.126 29.5112 372.298 28.3792 369.324 27.9743L369.122 29.4606C371.851 29.8322 374.447 30.8712 376.679 32.4856L377.558 31.2702ZM369.324 27.9743C366.35 27.5694 363.323 27.9042 360.509 28.9489L361.031 30.3551C363.614 29.3962 366.392 29.089 369.122 29.4606L369.324 27.9743Z" fill="black"></path><path d="M256.887 164.265L248.375 165.858L254.011 172.434L256.887 164.265ZM248.997 173.676L249.704 173.926L248.997 173.676ZM249.234 185.956L248.537 186.232L249.234 185.956ZM269.679 196.493L269.858 197.221L269.858 197.221L269.679 196.493ZM266.086 161.259C265.672 161.246 265.325 161.57 265.312 161.984C265.299 162.398 265.623 162.745 266.037 162.758L266.086 161.259ZM251.173 168.194C249.941 169.755 248.962 171.52 248.289 173.427L249.704 173.926C250.321 172.176 251.219 170.556 252.351 169.123L251.173 168.194ZM248.289 173.427C246.822 177.585 246.91 182.134 248.537 186.232L249.931 185.679C248.438 181.917 248.357 177.742 249.704 173.926L248.289 173.427ZM248.537 186.232C250.163 190.331 253.219 193.702 257.139 195.722L257.826 194.388C254.228 192.534 251.424 189.441 249.931 185.679L248.537 186.232ZM257.139 195.722C261.058 197.742 265.577 198.274 269.858 197.221L269.5 195.765C265.57 196.731 261.423 196.242 257.826 194.388L257.139 195.722ZM269.858 197.221C274.14 196.168 277.896 193.6 280.431 189.992L279.204 189.13C276.877 192.441 273.43 194.798 269.5 195.765L269.858 197.221ZM280.431 189.992C282.967 186.384 284.11 181.981 283.65 177.595L282.158 177.752C282.58 181.777 281.531 185.819 279.204 189.13L280.431 189.992ZM283.65 177.595C283.19 173.21 281.157 169.139 277.929 166.136L276.907 167.235C279.87 169.991 281.736 173.727 282.158 177.752L283.65 177.595ZM277.929 166.136C274.7 163.133 270.493 161.401 266.086 161.259L266.037 162.758C270.082 162.888 273.944 164.478 276.907 167.235L277.929 166.136Z" fill="black"></path></svg> 