<?xml version="1.0" encoding="UTF-8"?> <svg xmlns="http://www.w3.org/2000/svg" width="282" height="246" viewBox="0 0 282 246" fill="none"><mask id="mask0_2023:49821" style="mask-type:alpha" maskUnits="userSpaceOnUse" x="0" y="0" width="281" height="246"><rect width="281" height="246" fill="#C4C4C4"></rect></mask><g mask="url(#mask0_2023:49821)"><mask id="mask1_2023:49821" style="mask-type:alpha" maskUnits="userSpaceOnUse" x="-37" y="-229" width="500" height="494"><rect x="-37" y="-229" width="500" height="493.421" fill="white"></rect></mask><g mask="url(#mask1_2023:49821)"><rect x="-37" y="-229" width="501.645" height="493.421" fill="white"></rect><line x1="0.920847" y1="271.418" x2="0.920847" y2="-222.003" stroke="#E0E0E0" stroke-width="0.822368"></line><line x1="35.922" y1="271.418" x2="35.922" y2="-222.003" stroke="#E0E0E0" stroke-width="0.82"></line><line x1="70.9208" y1="271.418" x2="70.9208" y2="-222.003" stroke="#E0E0E0" stroke-width="0.822368"></line><line x1="105.921" y1="271.418" x2="105.921" y2="-222.003" stroke="#E0E0E0" stroke-width="0.822368"></line><line x1="140.921" y1="271.418" x2="140.921" y2="-222.003" stroke="#E0E0E0" stroke-width="0.822368"></line><line x1="175.922" y1="271.418" x2="175.922" y2="-222.003" stroke="#E0E0E0" stroke-width="0.82"></line><line x1="210.921" y1="271.418" x2="210.921" y2="-222.003" stroke="#E0E0E0" stroke-width="0.822368"></line><line x1="245.921" y1="271.418" x2="245.921" y2="-222.003" stroke="#E0E0E0" stroke-width="0.822368"></line><line x1="280.921" y1="271.418" x2="280.921" y2="-222.003" stroke="#E0E0E0" stroke-width="0.822368"></line><line x1="466.289" y1="244.799" x2="-46.8688" y2="244.799" stroke="#E0E0E0" stroke-width="0.82"></line><line x1="466.289" y1="209.8" x2="-46.8688" y2="209.8" stroke="#E0E0E0" stroke-width="0.822368"></line><line x1="466.289" y1="174.8" x2="-46.8688" y2="174.8" stroke="#E0E0E0" stroke-width="0.822368"></line><line x1="466.289" y1="139.8" x2="-46.8688" y2="139.8" stroke="#E0E0E0" stroke-width="0.822368"></line><line x1="466.289" y1="104.799" x2="-46.8688" y2="104.799" stroke="#E0E0E0" stroke-width="0.82"></line><line x1="466.289" y1="69.7999" x2="-46.8688" y2="69.7999" stroke="#E0E0E0" stroke-width="0.822368"></line><line x1="466.289" y1="34.7999" x2="-46.8688" y2="34.7999" stroke="#E0E0E0" stroke-width="0.822368"></line><line x1="466.289" y1="-0.200144" x2="-46.8688" y2="-0.200144" stroke="#E0E0E0" stroke-width="0.822368"></line></g><path d="M106.752 139.5L71.5 209.5L141.5 174.748L106.752 139.5Z" fill="#0D77F3" fill-opacity="0.3" stroke="#0D77F3" stroke-width="2" stroke-linejoin="round"></path><path d="M71.2517 35L36 105L106 70.2482L71.2517 35Z" fill="#FF4081" fill-opacity="0.3" stroke="#FF4081" stroke-width="2" stroke-linejoin="round"></path><path d="M71 210H36V105" stroke="#FB1313" stroke-width="2" stroke-linecap="round" stroke-linejoin="round" stroke-dasharray="0.1 4"></path></g><path d="M18.5865 160.44V157.598H15.8145V156.366H18.5865V153.608H19.8745V156.366H22.6465V157.598H19.8745V160.44H18.5865ZM27.579 161.14C26.907 161.14 26.263 161.042 25.647 160.846C25.0403 160.641 24.5363 160.365 24.135 160.02L24.723 158.648C25.563 159.301 26.4963 159.628 27.523 159.628C28.783 159.628 29.413 159.133 29.413 158.144C29.413 157.677 29.2543 157.332 28.937 157.108C28.629 156.875 28.1763 156.758 27.579 156.758H25.997V155.274H27.411C27.9337 155.274 28.349 155.148 28.657 154.896C28.965 154.635 29.119 154.275 29.119 153.818C29.119 153.389 28.9743 153.062 28.685 152.838C28.405 152.614 27.9943 152.502 27.453 152.502C26.4823 152.502 25.6283 152.838 24.891 153.51L24.303 152.166C24.695 151.793 25.185 151.503 25.773 151.298C26.361 151.093 26.9723 150.99 27.607 150.99C28.6337 150.99 29.4317 151.223 30.001 151.69C30.5703 152.147 30.855 152.787 30.855 153.608C30.855 154.14 30.7197 154.607 30.449 155.008C30.1783 155.409 29.8097 155.699 29.343 155.876C29.9123 156.035 30.3557 156.329 30.673 156.758C30.9903 157.178 31.149 157.691 31.149 158.298C31.149 159.175 30.8317 159.871 30.197 160.384C29.5623 160.888 28.6897 161.14 27.579 161.14Z" fill="black"></path><path d="M45.1446 222.948V221.548H49.3166V222.948H45.1446ZM51.9389 226V224.516H54.1649V218.174L52.4429 219.21L51.7429 217.894L54.6829 216.13H55.9569V224.516H58.0429V226H51.9389Z" fill="black"></path><line x1="68" y1="213.01" x2="74.0104" y2="206.999" stroke="black" stroke-width="1.5" stroke-linecap="round"></line><line x1="0.75" y1="-0.75" x2="9.25" y2="-0.75" transform="matrix(-0.707107 -0.707107 -0.707107 0.707107 74.0703 214.07)" stroke="black" stroke-width="1.5" stroke-linecap="round"></line><line x1="33" y1="108.01" x2="39.0104" y2="101.999" stroke="black" stroke-width="1.5" stroke-linecap="round"></line><line x1="0.75" y1="-0.75" x2="9.25" y2="-0.75" transform="matrix(-0.707107 -0.707107 -0.707107 0.707107 39.0703 109.07)" stroke="black" stroke-width="1.5" stroke-linecap="round"></line><line x1="33" y1="213.01" x2="39.0104" y2="206.999" stroke="black" stroke-width="1.5" stroke-linecap="round"></line><line x1="0.75" y1="-0.75" x2="9.25" y2="-0.75" transform="matrix(-0.707107 -0.707107 -0.707107 0.707107 39.0703 214.07)" stroke="black" stroke-width="1.5" stroke-linecap="round"></line><g clip-path="url(#clip0_2023:49821)"><path d="M107.049 170.966C107.049 171.19 107.274 171.32 107.724 171.358C107.9 171.358 107.988 171.409 107.988 171.511C107.988 171.52 107.978 171.581 107.958 171.693C107.929 171.823 107.9 171.907 107.87 171.944C107.841 171.981 107.777 172 107.68 172C107.66 172 107.601 172 107.504 172C107.406 172 107.24 171.995 107.005 171.986C106.77 171.977 106.457 171.972 106.066 171.972C105.372 171.972 104.927 171.981 104.732 172H104.614C104.546 171.935 104.512 171.884 104.512 171.846C104.531 171.595 104.595 171.432 104.702 171.358H104.908C105.592 171.33 106.091 171.097 106.404 170.659C106.462 170.603 107.347 169.183 109.058 166.399C110.769 163.615 111.639 162.205 111.669 162.168C111.737 162.056 111.855 162 112.021 162H112.138H112.387C112.446 162.084 112.475 162.13 112.475 162.14L112.886 166.651C113.16 169.658 113.306 171.176 113.326 171.204C113.375 171.306 113.693 171.358 114.279 171.358C114.524 171.358 114.646 171.404 114.646 171.497C114.646 171.516 114.631 171.581 114.602 171.693C114.573 171.832 114.548 171.916 114.529 171.944C114.509 171.972 114.441 171.991 114.323 172C114.294 172 114.226 172 114.118 172C114.01 172 113.82 171.995 113.546 171.986C113.272 171.977 112.915 171.972 112.475 171.972C111.556 171.972 110.955 171.981 110.671 172H110.495C110.437 171.944 110.407 171.902 110.407 171.874C110.407 171.846 110.417 171.763 110.437 171.623C110.476 171.502 110.505 171.427 110.525 171.399L110.583 171.358H110.877C111.405 171.33 111.718 171.25 111.815 171.12L111.639 169.025H108.149L107.65 169.835C107.249 170.478 107.049 170.855 107.049 170.966ZM111.566 168.369C111.566 168.266 111.507 167.54 111.39 166.19C111.273 164.84 111.204 164.16 111.185 164.151L110.789 164.751C110.632 165.003 110.324 165.501 109.865 166.246L108.545 168.369L110.055 168.383C111.063 168.383 111.566 168.378 111.566 168.369Z" fill="black"></path></g><g clip-path="url(#clip1_2023:49821)"><path d="M74.3483 58.6735C74.0874 58.6735 73.9328 58.6686 73.8845 58.6589C73.8362 58.6491 73.8121 58.5954 73.8121 58.4978C73.8121 58.2343 73.8652 58.0732 73.9715 58.0146C73.9811 58.0049 74.6091 58 75.8554 58C78.3577 58 79.6765 58.0098 79.8118 58.0293C80.4204 58.1269 80.9277 58.3465 81.3334 58.6881C81.7392 59.0298 81.9469 59.4788 81.9566 60.0351C81.9566 60.6598 81.6764 61.2211 81.116 61.7189C80.5557 62.2167 79.9132 62.5534 79.1886 62.7291L79.0437 62.7731C79.662 62.8609 80.1692 63.0854 80.5654 63.4466C80.9615 63.8077 81.1644 64.2567 81.174 64.7936C81.174 65.5061 80.8262 66.1942 80.1306 66.858C79.435 67.5217 78.5799 67.8975 77.5655 67.9854C77.4979 67.9951 76.4786 68 74.5077 68C72.5754 68 71.5948 67.9902 71.5658 67.9707C71.5271 67.9414 71.5078 67.9024 71.5078 67.8536C71.5078 67.7853 71.5175 67.7169 71.5368 67.6486C71.5851 67.4632 71.6334 67.3607 71.6817 67.3411C71.7204 67.3314 71.7928 67.3265 71.8991 67.3265H71.9861C72.2469 67.3265 72.5367 67.3119 72.8556 67.2826C72.9908 67.2533 73.0826 67.1947 73.1309 67.1069C73.1599 67.0678 73.5077 65.7111 74.1744 63.0366C74.841 60.3621 75.1743 58.9517 75.1743 58.8053C75.1743 58.7369 74.899 58.693 74.3483 58.6735ZM80.4059 60.0351C80.4059 59.7423 80.3335 59.469 80.1886 59.2152C80.0436 58.9614 79.8069 58.7955 79.4784 58.7174C79.4108 58.6979 78.9664 58.6833 78.1452 58.6735C77.9519 58.6735 77.7491 58.6735 77.5365 58.6735C77.324 58.6735 77.1549 58.6784 77.0293 58.6881H76.8409C76.696 58.6979 76.6042 58.7467 76.5655 58.8346C76.5462 58.8736 76.3916 59.4592 76.1018 60.5915C76.1018 60.6208 76.097 60.6501 76.0873 60.6794L75.6381 62.5242H76.8119C77.5945 62.5242 78.0437 62.5144 78.1597 62.4949C78.7394 62.3973 79.2562 62.1142 79.7103 61.6457C80.1644 61.1772 80.3963 60.6403 80.4059 60.0351ZM79.6234 64.6471C79.6234 64.2177 79.5123 63.8614 79.2901 63.5783C79.0678 63.2953 78.778 63.1293 78.4205 63.0805C78.3626 63.0708 77.9616 63.0659 77.2177 63.0659C76.0776 63.0659 75.5028 63.0708 75.4931 63.0805C75.4931 63.1 75.411 63.4563 75.2468 64.1493C75.0825 64.8424 74.9134 65.5305 74.7395 66.2138L74.4787 67.2387C74.4787 67.2777 74.5367 67.2972 74.6526 67.2972C74.7685 67.2972 75.1598 67.307 75.8264 67.3265C76.6863 67.3265 77.1501 67.3216 77.2177 67.3119C77.8167 67.2435 78.3674 66.9605 78.8698 66.4627C79.3722 65.9649 79.6234 65.3597 79.6234 64.6471Z" fill="black"></path></g><rect x="1" y="1" width="280" height="244" stroke="#FF4081" stroke-width="2"></rect><defs><clipPath id="clip0_2023:49821"><rect width="11" height="10" fill="white" transform="translate(104 162)"></rect></clipPath><clipPath id="clip1_2023:49821"><rect width="11" height="10" fill="white" transform="translate(71 58)"></rect></clipPath></defs></svg> 